<?xml version="1.0" encoding="utf-8"?>
<!-- Generator: Adobe Illustrator 26.1.0, SVG Export Plug-In . SVG Version: 6.00 Build 0)  -->
<svg version="1.1" id="Layer_1" xmlns="http://www.w3.org/2000/svg" xmlns:xlink="http://www.w3.org/1999/xlink" x="0px" y="0px"
	 viewBox="0 0 1920 1080" style="enable-background:new 0 0 1920 1080;" xml:space="preserve">
<style type="text/css">
	.st0{fill:#FFE420;}
	.st1{opacity:0.0879;}
	.st2{fill:#DD2020;}
	.st3{fill:#D22020;}
</style>
<g>
	<g>
		<g>
			<g>
				<path class="st0" d="M1628.66,626.59c-2.91-0.27-5.76-0.53-8.59-0.78c5.51,0.17,13.7,0.66,23.03,1.31
					c-11.28-0.95-23.02-1.87-35.06-2.76c-12.05-0.83-24.41-1.59-36.95-2.33c-6.27-0.36-12.58-0.72-18.92-1.09
					c-6.34-0.35-12.7-0.62-19.07-0.92c-12.75-0.54-25.52-1.08-38.2-1.62c-12.67-0.44-25.24-0.78-37.57-1.12
					c-6.16-0.16-12.26-0.31-18.28-0.47c-6.02-0.09-11.97-0.18-17.81-0.27c-11.69-0.13-23.01-0.26-33.79-0.39
					c-10.79-0.03-21.05,0.01-30.65,0.05c-6.92-0.17-13.66-0.3-19.9-0.37c-6.24-0.06-12-0.02-16.98,0.03
					c-9.95,0.12-16.77,0.39-18.09,0.8c-1.29,0.41,3.16,0.87,11.42,1.29c8.26,0.44,20.33,0.74,34.29,1.13
					c6.14,0.24,13.31,0.47,17.76,0.71c39.82,2.16,88.42,4.79,142.04,7.69c-5.16-0.36-10.43-0.72-15.7-1.09
					c-5.27-0.33-10.55-0.65-15.72-0.97c15.5,0.75,30.78,1.71,48.05,2.51c-1.8-0.23-4.12-0.52-5.94-0.74
					c13.32,0.92,27.89,1.68,42.81,2.62c14.93,0.89,30.22,1.71,45,2.42c14.78,0.81,29.05,1.51,41.93,2.04
					c6.44,0.24,12.54,0.46,18.18,0.67c5.64,0.22,10.82,0.38,15.44,0.49c18.55,0.44,24.6-0.12,19.36-1.38
					c-2.62-0.63-8.07-1.44-16.19-2.38c-8.12-0.94-18.91-2.06-32.24-3.12L1628.66,626.59z"/>
				<path class="st0" d="M1529.27,616.32c7.99,0.52,15.9,0.98,23.75,1.55c7.85,0.57,15.64,1.13,23.39,1.69
					c15.5,1.13,30.85,2.2,46.2,3.49l6.06,0.66l-1.97-1.43l-0.61,0.05c-7.21-0.15-15.59-0.48-24.78-0.75
					c-9.19-0.29-19.2-0.65-29.67-1.07c-20.94-0.81-43.75-1.7-65.62-2.54l-15.61-0.51c-7.48-0.12-12.47-0.05-14.03,0.17
					c-1.84,0.25,0.65,0.65,6.14,1.1c2.74,0.22,6.24,0.46,10.32,0.7c4.08,0.27,8.75,0.54,13.84,0.8l23.47,1.19
					c14.29,0.84,30.62,1.81,47.59,2.81c16.97,0.96,34.57,1.95,51.37,2.9c8.41,0.44,16.62,0.87,24.45,1.28
					c7.84,0.37,15.3,0.73,22.21,1.06c13.82,0.64,25.44,1.01,33.45,1c7.21-0.03,0.97-1.1-0.53-1.8c2.23-0.7-19.22-2.97-47.77-4.89
					c-28.61-1.79-53.22-2.64-55.24-1.87c-4.83-0.32-9.83-0.65-14.63-0.96c3.78,0.1,7.64,0.2,11.49,0.3
					c-8.12,0.32-34.19-0.9-53.6-1.53l-29.08-1.12l16.32,2.78l15.14,0.44c-1.15-0.15-3.36-0.39-3.17-0.39
					c28.81,1.01,55.93,1.76,87.46,3.4l19.85,0.83c6.62,0.27,13.23,0.56,19.85,0.9c10.77,0.34,9.77-0.3-1.96-1.45
					c-5.85-0.56-11.71-1.06-17.56-1.56c2.65,0.25,5.3,0.49,7.93,0.74c-20.27-1.44-41.09-2.94-61.87-4.31
					c-20.78-1.29-41.51-2.59-61.57-3.84c-6.34-0.39-14.07-0.66-17.43-0.61C1519.99,615.57,1522.72,615.93,1529.27,616.32z"/>
				<g>
					<path class="st0" d="M1672.53,624.07c6.56,0.6,12.87,1.19,22.24,1.79c2.26,0.06,3.41,0.09,4.01,0.11
						c-3.46-0.33-8.14-0.77-12.82-1.22C1676.75,623.87,1671.99,623.75,1672.53,624.07z"/>
					<path class="st0" d="M1698.77,625.97c3.21,0.31,5.35,0.51,5.35,0.51c-1.23-0.15-2.42-0.29-3.57-0.43
						c-1.02-0.05-1.06-0.06-1.06-0.06S1699.46,625.99,1698.77,625.97z"/>
					<path class="st0" d="M548.95,915.14c30.72,5.06,61.68,9.13,92.75,12.3c31.07,3.18,62.26,5.46,93.45,6.69
						c15.6,0.63,31.19,0.93,46.75,0.94c15.78-0.08,31.56-0.15,47.35-0.23c31.58-0.19,63.17-0.27,94.75-0.56
						c4.23-0.05,7.79-0.19,8-0.32c0.21-0.11-3.08-0.18-6.99-0.13c-7.9,0.11-15.79,0.16-23.69,0.19c-7.89,0.04-15.79,0.08-23.68,0.12
						c-15.78,0.08-31.55,0.16-47.32,0.24c-15.76,0.08-31.52,0.15-47.27,0.23c-15.52,0.01-31.07-0.3-46.62-0.9
						c-31.11-1.21-62.21-3.45-93.21-6.6c-31-3.15-61.92-7.16-92.62-12.19c-4.13-0.68-7.56-1.13-8.14-1.11
						C542.22,913.93,545.1,914.5,548.95,915.14z"/>
					<path class="st0" d="M1488.41,929.73c-2.99,0.26-2.87,0.39,0.24,0.3c2.66-0.07,7.42-0.33,10.38-0.59
						c2.51-0.22,2.4-0.37-0.26-0.3C1495.68,929.23,1490.92,929.51,1488.41,929.73z"/>
					<path class="st0" d="M1461.87,941.01c-17.65,1.03-34.41,2.04-49.35,3.09c-2.79,0.18-5.92,0.32-8.28,0.38
						c1.04,0.16-2.33,0.48-8.69,0.82c-125.44,7.01-260.49,11.03-393.49,13.85c-0.88,0.17-2.65,0.36-5.61,0.55
						c-9.19,0.63-27.67,1.13-46.85,1.29l-14.47,0.06c-7.3,0.06-14.6,0.11-21.9,0.17c-7.3,0.02-14.59,0.04-21.89,0.05
						c-14.59,0.04-29.17,0.07-43.73,0.11c-14.57,0.04-29.13,0.07-43.67,0.11c-7.28,0.01-14.55,0.02-21.82,0.04
						c-7.34-0.03-14.67-0.1-21.99-0.27c-11.98,0.04-25.89-0.23-40.98-0.89c-50.58-1.82-101.19-6.09-152.64-13.08
						c3.21,0.62,5.15,1.06,5.09,1.23c-1.06,0.29-13.02-1.07-26.89-3.32c-7.01-1.11-13.99-2.27-20.96-3.5
						c20.02,3.65,40.14,6.84,60.21,9.65c2.9,0.41,5.58,0.79,8.02,1.13c22.11,2.85,44.49,5.27,67.3,7.19
						c24.89,2.11,49.65,3.61,74.3,4.44c12.33,0.41,24.62,0.66,36.9,0.7c12.35,0.05,24.38-0.18,36.44-0.3
						c24.11-0.31,48.08-0.61,71.92-0.92c11.92-0.16,23.81-0.33,35.67-0.49c11.86-0.24,23.69-0.48,35.5-0.71
						c23.61-0.49,47.12-0.99,70.55-1.48c11.71-0.22,23.4-0.56,35.08-0.89c11.67-0.33,23.33-0.66,34.97-0.99
						c11.64-0.33,23.26-0.67,34.87-1c5.8-0.17,11.61-0.34,17.4-0.51c5.8-0.21,11.59-0.41,17.38-0.62
						c23.17-0.83,46.29-1.66,69.39-2.49c3.03-0.15,7.77-0.26,10.47-0.23c1.8,0.04,1.48,0.21-1.9,0.36
						c-29.12,1.34-57.25,2.64-85.13,3.93c-3.49,0.16-6.97,0.33-10.45,0.49c-3.48,0.14-6.96,0.29-10.43,0.43
						c-6.95,0.28-13.9,0.57-20.85,0.85c-13.91,0.56-27.85,1.13-41.9,1.7c-14.06,0.54-28.23,1.17-42.62,1.63
						c-14.39,0.45-28.99,0.9-43.88,1.37c-14.9,0.43-30.1,0.86-45.7,1.31c-7.8,0.2-15.69,0.41-23.7,0.62
						c-8.01,0.15-16.12,0.3-24.36,0.46c-19.6,0.35-39.18,0.7-58.73,1.05c-9.78,0.17-19.55,0.34-29.33,0.52l-14.66,0.25l-7.4,0.1
						l-7.45,0.05c-39.71,0.1-79.23-1.73-118.76-4.9c-39.53-3.21-79.07-7.85-118.71-14.15c-39.63-6.36-79.38-14.28-119.18-25.37
						c-15.04-4.35-29.94-9.04-44.66-14.5c-7.37-2.67-14.68-5.63-21.95-8.7c-7.27-3.12-14.48-6.49-21.64-10.13
						c-7.15-3.69-14.24-7.72-21.22-12.24c-6.97-4.54-13.85-9.58-20.45-15.58c-6.57-6-12.94-13-18.21-21.7l-1.94-3.29
						c-0.6-1.16-1.17-2.35-1.74-3.53c-0.56-1.19-1.16-2.34-1.62-3.64l-1.48-3.96c-0.13-0.37-0.26-0.7-0.38-1.12l-0.35-1.25
						c-0.23-0.83-0.45-1.67-0.65-2.51c-0.39-1.68-0.84-3.37-1.05-5.06l-0.56-5.1c-0.09-0.85-0.21-1.7-0.26-2.55l-0.14-2.56
						c0.72-1.6,1.43-3.19,2.15-4.77l2.2-4.48l0.46-0.95l0.23-0.47l0.12-0.24l0-0.3l-0.01-2.36l-0.01-1.18l0-0.3
						c0.02-0.09,0.09-0.16,0.13-0.24l0.3-0.47l1.22-1.89c0.81-1.27,1.61-2.49,2.54-3.76l1.04-1.44c0.28-0.4,0.57-0.77,0.86-1.15
						l1.73-2.26l1.75-2.18c1.17-1.47,2.37-2.84,3.56-4.23c4.81-5.51,9.83-10.55,14.97-15.34c5.13-4.82,10.47-9.2,15.84-13.53
						c2.72-2.08,5.42-4.21,8.18-6.22l4.14-3l2.07-1.5l2.1-1.44c11.16-7.73,22.64-14.77,34.31-21.34
						c11.7-6.52,23.61-12.53,35.66-18.23c48.32-22.53,99.05-39.41,151.8-53.53c28.47-7.57,56.92-14.17,85.31-19.92
						c28.4-5.74,56.73-10.72,84.99-15.18c7.07-1.06,14.13-2.12,21.19-3.18l5.29-0.79l5.29-0.72l10.58-1.45
						c14.1-2,28.2-3.65,42.27-5.4c7.04-0.87,14.08-1.58,21.11-2.38c7.03-0.76,14.06-1.61,21.09-2.26
						c14.06-1.36,28.1-2.84,42.15-3.98c112.35-9.79,224.27-13.62,338-13.94c5.33-0.03,10.63-0.07,15.88-0.1
						c5.25,0.03,10.47,0.06,15.62,0.09c10.31,0.11,20.39,0.21,30.13,0.31c19.47,0.38,37.54,0.94,53.3,1.52
						c31.5,1.45,53.73,2.98,59.2,4.49c3.18,0.88-0.05,1.54-8.44,1.97c-8.4,0.5-21.97,0.82-39.46,0.94
						c6.97,0.17,13.84,0.33,20.75,0.49l16.43,0.52l16.42,0.63c15.54,0.64,29.94,1.27,42.53,2.02c12.59,0.79,23.39,1.58,31.73,2.33
						c7.65,0.67,15.31,1.27,22.95,1.99c15.24,1.73,35.21,3.57,54.48,5.45c19.26,1.98,37.81,3.94,50.24,5.68l-5.64,0.51l5.89,0.55
						c19.46,1.71,32.54,3.32,37.01,4.41l-1.93,0.86c-4.15,0.87-13.96,1.33-29.65,1.37c0.52,0.45-1.38,0.73-5.47,0.91
						c13.29,1.75,19.53,3.23,8.91,3.73c8.01,0.78,6.65,1.12-2.92,0.79c-3.3-0.12-7.28-0.26-11.33-0.47c0.07,0.01,0.1,0.01,0.1,0.01
						c4.39,0.47,5.7,0.62,11.62,1.25c7.97,0.58,12.57,0.91,12.57,0.91c21.2,1.47,21.2,1.47,39.55,2.74
						c7.9,0.64,14.27,1.33,18.68,1.77c4.4,0.48,6.84,0.75,6.84,0.75c17.37,2.93,17.37,2.93,14.61,3.5c-1.03,0-2.18-0.01-3.4-0.02
						c13.98,1.21,14.95,1.29,18.72,1.62c3.94,0.4,6.64,0.74,6.64,0.74c0.58,0.45,0.58,0.45,2.97,0.75c0.76,0.21,0.57,0.35,0.57,0.35
						c-7.85-0.08-7.85-0.08-8.07,0.03c-1.86,0-4.41-0.08-4.41-0.08c-9.16-0.48-12.8-0.68-14.34-0.76
						c-19.55-2.38-19.61-2.38-19.61-2.38c-4.29,0.07-4.29,0.07-4.29,0.07c-4.54-0.79-4.54-0.79-4.54-0.79
						c2.56,0.62,2.56,0.62,2.56,0.62c-9.91-0.93-9.91-0.93-9.91-0.93c11.31,1.15,11.31,1.15,11.31,1.15
						c-11.73-0.9-17.6-1.25-21.71-1.53c-4.11-0.25-6.46-0.4-11.17-0.68c-9.77-0.65-18.14-1.05-19.14-1.1
						c0.81,0.19,0.85,0.29,0.85,0.29c-25.1-1.72-25.11-1.62-49.58-3.14c-2.26-0.24-4.05-0.42-5.73-0.6
						c-2.36-0.01-7.05-0.18-11.88-0.48c-4.3-0.25-8.57-0.52-12.85-0.73c-0.96-0.02-1.89-0.04-2.76-0.06c0,0.02,0.03,0.04,0.03,0.04
						c-4.37-0.12-7.4-0.2-10.86-0.29c-2.18-0.05-2.24-0.05-2.24-0.05c-0.02,0-0.09-0.01-0.13-0.01c-3.74-0.1-8.32-0.22-15.55-0.42
						c-7.23-0.17-17.1-0.52-31.44-0.75c-7.6-0.36-14.68-0.7-21.37-1.02c2.16,0.15,4.22,0.3,6.22,0.44c3.99,0.3,0.33,0.54,2.51,0.66
						c6.71,0.35,13.49,0.71,20.33,1.06c6.84,0.39,13.75,0.78,20.71,1.17c13.92,0.78,28.05,1.58,42.31,2.38
						c14.25,0.87,28.63,1.75,43.04,2.63c3.6,0.22,7.21,0.44,10.81,0.66l10.82,0.73c7.21,0.49,14.42,0.98,21.61,1.47
						c10.33,0.58,20.01,1.4,21.51,1.8c1.32,0.4-6.07,0.24-16.65-0.36c-29.2-1.28-60.07-2.64-91.81-4.03
						c-15.87-0.65-31.96-1.31-48.17-1.97c-4.05-0.17-8.11-0.34-12.18-0.51c-4.07-0.15-8.14-0.29-12.22-0.44
						c-8.16-0.31-16.33-0.61-24.51-0.92c-65.44-2.42-131.27-4.33-191.26-5.48c-7.9-0.09-15.8-0.18-23.72-0.27
						c-7.92-0.02-15.84-0.05-23.78-0.07c-7.94-0.02-15.88-0.03-23.83-0.05c-7.95,0.06-15.91,0.11-23.87,0.17
						c1.53,0.05,3.05,0.09,4.56,0.14c-8.25,0-16.49,0.01-24.72,0.01c-0.89,0.01-1.79,0.02-2.67,0.03c6.26,0.16,12.5,0.31,18.71,0.47
						c4.3,0.01,8.61,0.03,12.97,0.04c73.86-0.51,140.87,1.33,212.2,3.93c19.17,0.79,36.98,1.53,54.53,2.43
						c17.54,0.95,34.83,1.89,52.93,2.88c9.33,0.47,15.78,1.02,14.67,1.26c-1.1,0.23-9.8,0.03-18.92-0.43
						c-60.46-2.26-125.19-4.15-186.91-5.29c-61.71-1.18-120.4-1.59-168.81-1.87c-11.03,0.24-21.87,0.42-32.14,0.54
						c-10.27,0.19-19.99,0.36-28.81,0.41c-0.32,0.01-0.67,0.02-0.99,0.02c4.64,0.06,8.96,0.11,13.59,0.16
						c-16.49,0.4-25.3,0.1-40.34,0.56c1.74,0.18,3.85,0.4,5.59,0.58c-81.34,2.57-169.06,8.96-243.86,16.37
						c-3.02,0.29-5.82,0.63-8.62,0.94c-8.01,1.11-16.05,2.22-24.19,3.34c-8.12,1.2-16.35,2.42-24.77,3.67
						c-16.81,2.56-34.36,5.28-53.25,8.44c6.41-0.99,12.74-1.96,19.07-2.94c6.35-0.89,12.7-1.78,19.13-2.69
						c-27.5,4.26-54.64,9.05-83.84,14.5c-4.94,0.94-9.91,1.88-14.91,2.83c-4.98,1.01-9.99,2.02-15,3.03
						c-2.51,0.5-5.02,1.01-7.53,1.51l-7.5,1.62c-5,1.07-10,2.15-14.98,3.22c-4.96,1.14-9.9,2.27-14.82,3.39
						c-2.46,0.56-4.91,1.12-7.35,1.68c-2.43,0.59-4.85,1.18-7.25,1.77c-4.82,1.18-9.59,2.34-14.3,3.49
						c-4.69,1.21-9.33,2.41-13.89,3.59c-36.49,9.49-67.79,19.58-87.8,26.2c-29.96,11.74-59.26,25.14-86.35,41.51l-5.06,3.08
						l-4.97,3.19l-2.49,1.59l-2.43,1.65l-4.87,3.31c-6.38,4.52-12.6,9.2-18.52,14.13c-5.9,4.93-11.52,10.11-16.6,15.54
						c-2.54,2.71-4.95,5.48-7.19,8.29l-1.62,2.11c-0.28,0.35-0.52,0.7-0.77,1.06l-0.32,0.45c-0.42,0.6-0.83,1.22-1.2,1.85
						l-0.51,0.88c-0.01,0.33,0.03,0.68,0.04,1.02c0.22,2.18,0.4,3.25,2.28,7.4c1.67,3.48,4.07,6.98,7,10.37
						c3,3.37,6.48,6.62,10.23,9.73c1.95,1.51,3.85,3.06,5.94,4.5c2,1.49,4.16,2.87,6.29,4.28c8.61,5.55,18.02,10.43,27.69,14.92
						c9.7,4.48,19.73,8.51,29.94,12.23c20.44,7.42,41.56,13.59,62.9,19.01c21.35,5.43,43,10.02,64.75,14.11
						c3.94,0.72,7.68,1.44,10.59,2.05c2.92,0.59,5.03,1.06,5.71,1.31c0.77,0.36-4.49-0.29-12.38-1.74
						c-21.98-3.93-43.89-8.45-65.59-13.78c-21.69-5.32-43.2-11.45-64.1-18.85c-20.85-7.41-41.27-16.12-59.28-27.3
						c-8.89-5.63-17.17-11.94-23.49-18.99c-3.11-3.53-5.72-7.2-7.55-10.91l-0.69-1.39c-0.24-0.46-0.35-0.93-0.54-1.4
						c-0.39-1.04-0.64-1.58-0.77-2.16c-0.16-0.59-0.34-1.17-0.41-1.77c-0.1-0.6-0.22-1.2-0.23-1.81c-0.02-0.4-0.06-0.81-0.06-1.2
						l0.6-1.05c0.57-0.95,1.14-1.84,1.82-2.78c1.3-1.81,2.72-3.61,4.19-5.4c2.96-3.57,6.21-7.05,9.59-10.45
						c6.85-6.75,14.34-13.13,22.22-19.11c-7.88,5.89-15.39,12.17-22.3,18.87c-3.41,3.37-6.71,6.83-9.72,10.39
						c-1.49,1.79-2.95,3.59-4.28,5.41c-0.76,1.01-1.36,1.9-1.98,2.91l-0.65,1.09c-0.02,0.41,0.02,0.84,0.03,1.26
						c0,0.51,0.06,1.01,0.15,1.52c0.09,0.5,0.12,1.01,0.27,1.5l0.38,1.48l0.35,0.93l0.41,1.14c0.22,0.77,0.69,1.51,1.01,2.27
						l0.53,1.14c0.17,0.38,0.43,0.75,0.64,1.13l1.32,2.26l1.56,2.23c0.48,0.76,1.1,1.47,1.69,2.2c0.61,0.72,1.14,1.48,1.79,2.18
						c1.33,1.41,2.55,2.87,4.04,4.22c0.72,0.69,1.41,1.39,2.14,2.07l2.29,1.99c1.48,1.36,3.18,2.59,4.77,3.89
						c6.56,5.08,13.88,9.63,21.51,13.84c7.63,4.21,15.61,8.05,23.8,11.6c16.38,7.1,33.48,13.18,50.93,18.55
						c8.72,2.71,17.54,5.22,26.42,7.6c8.88,2.4,17.84,4.62,26.85,6.74c12.02,2.78,24.19,5.35,36.43,7.75
						c12.11,2.36,24.13,4.61,36.15,6.74c30.63,5.17,61.07,9.27,91.44,12.51c30.37,3.22,60.68,5.63,91.08,7.03
						c15.2,0.7,30.42,1.17,45.67,1.31c7.65,0.06,15.19,0.07,22.97-0.02c7.74-0.07,15.49-0.14,23.26-0.21
						c31.09-0.33,62.5-0.66,94.47-1c27.3-0.48,53.74-0.94,79.75-1.39c13-0.24,25.9-0.48,38.74-0.71
						c12.84-0.22,25.62-0.61,38.39-0.91c25.55-0.65,51.09-1.29,77.03-1.95c25.93-0.84,52.27-1.69,79.43-2.57
						c19.08-0.56,37.92-1.4,56.61-2.12c18.69-0.76,37.22-1.42,55.62-2.25c18.4-0.86,36.69-1.71,54.92-2.55
						c4.56-0.21,9.11-0.42,13.66-0.63c4.55-0.24,9.09-0.48,13.63-0.72c9.08-0.49,18.15-0.97,27.22-1.46l27.2-1.44
						c9.06-0.55,18.12-1.1,27.19-1.65c9.07-0.55,18.15-1.09,27.24-1.64c9.09-0.54,18.18-1.22,27.31-1.83
						c9.12-0.62,18.26-1.24,27.43-1.86c9.15-0.7,18.34-1.4,27.55-2.11c4.61-0.35,9.22-0.7,13.85-1.05
						c4.62-0.39,9.24-0.79,13.88-1.18c4.63-0.39,9.28-0.79,13.94-1.19c2.33-0.2,4.66-0.4,6.99-0.6c2.33-0.22,4.66-0.44,6.99-0.67
						c19.86-1.88,38.18-3.5,40.57-3.13c1.22,0.17-1.72,0.81-7.47,1.64c-5.74,0.84-14.27,1.95-24.24,2.89l-14.59,1.48l-14.62,1.34
						c-9.75,0.86-19.48,1.83-29.24,2.57c-9.76,0.79-19.51,1.57-29.26,2.36c-9.75,0.77-19.52,1.41-29.28,2.12
						c-9.76,0.68-19.51,1.43-29.28,2.04l-29.29,1.83c-9.77,0.59-19.52,1.25-29.29,1.79l-29.31,1.58l-29.32,1.58
						c-9.78,0.52-19.56,0.92-29.35,1.38c-19.57,0.88-39.15,1.85-58.75,2.64c-39.21,1.46-78.48,3.13-117.89,4.21
						c-19.7,0.6-39.43,1.2-59.19,1.8c-19.77,0.46-39.57,0.93-59.42,1.39c-9.92,0.23-19.86,0.45-29.8,0.68
						c-9.94,0.22-19.9,0.47-29.87,0.61c-19.94,0.32-39.92,0.63-59.96,0.95c-10.02,0.15-20.05,0.31-30.1,0.46
						c-10.05,0.15-20.11,0.32-30.18,0.38c-20.15,0.17-40.37,0.34-60.65,0.52c-20.27,0.15-40.61,0.3-61.02,0.45
						c-20.2,0.05-40.53-0.5-60.91-1.48c-35.19-1.71-69.79-4.66-104.06-8.63c0.43,0.13,0.84,0.26,0.83,0.34
						c-0.04,0.34-3.34,0.27-8.85-0.13c38.92,4.76,78.33,8.22,117.91,10.12c13.76,0.51,27.53,0.82,41.3,0.87
						c6.9,0.02,13.72,0,20.7-0.1c6.95-0.09,13.91-0.18,20.87-0.27c27.86-0.33,55.84-0.67,84.05-1.01c7.05-0.08,14.12-0.15,21.2-0.23
						c7.08-0.11,14.18-0.22,21.29-0.34c14.23-0.21,28.53-0.42,42.92-0.63c28.77-0.41,57.89-0.69,87.45-1.25
						c40.6-0.66,79.27-1.06,117.17-1.85c18.95-0.33,37.72-0.65,56.43-0.98c18.71-0.44,37.38-0.89,56.15-1.33
						c95.07-3.62,189.83-8.3,285.57-15.17c3.81-0.33,7.79-0.56,9.17-0.54c1.38,0.02-0.67,0.29-4.53,0.62
						c-65.78,5.45-133.37,9.42-201.62,12.85c10.78-0.05,17.21,0.19,16.37,0.77c-0.83,0.6-9.15,1.43-21.9,2.3l23.23-0.91l23.22-1.08
						c9.57-0.44,17.11-0.58,16.85-0.29c-0.2,0.31-7.79,0.89-16.9,1.32c-7.9,0.37-15.79,0.74-23.68,1.1
						c-7.9,0.31-15.79,0.62-23.68,0.93c-15.78,0.62-31.56,1.24-47.33,1.86c-31.56,1.01-63.1,2.02-94.64,3.03
						c-18.94,0.56-37.85,1.12-56.77,1.68c-18.91,0.55-37.82,1.16-56.74,1.54c-18.92,0.43-37.84,0.85-56.77,1.28
						c-9.47,0.21-18.94,0.42-28.42,0.64c-9.48,0.16-18.96,0.32-28.45,0.48c10.53,0.24,18.29,0.59,21.99,1.06
						c0.02,0,0.02,0.01,0.02,0.01c11.76-0.23,23.47-0.46,35.15-0.7c26.8-0.71,53.68-1.42,80.64-2.13
						c26.95-0.85,53.97-1.71,81.06-2.57c13.54-0.38,27.1-0.97,40.67-1.46c13.57-0.51,27.16-1.02,40.76-1.52
						c6.8-0.26,13.61-0.52,20.41-0.78c6.81-0.3,13.62-0.6,20.43-0.9c13.63-0.6,27.27-1.19,40.92-1.79
						c13.66-0.54,27.32-1.31,40.99-1.99c13.67-0.69,27.36-1.39,41.06-2.08c27.38-1.64,54.82-3.06,82.27-4.98
						c6.86-0.45,13.73-0.91,20.6-1.36c6.87-0.44,13.73-1.01,20.6-1.51c13.73-1.03,27.48-2.02,41.21-3.23
						c6.87-0.59,13.74-1.17,20.61-1.76c6.86-0.65,13.73-1.3,20.59-1.95c13.72-1.36,27.45-2.82,41.09-4.55
						c2.13-0.29,4.08-0.52,5.51-0.67c1.4-0.16,2.29-0.23,2.34-0.17c0.1,0.12-3.11,0.7-6.98,1.19c-4.1,0.57-8.25,1.01-12.38,1.51
						c-4.13,0.51-8.27,0.94-12.41,1.38l-12.42,1.32l-12.44,1.18c-16.57,1.65-33.18,2.92-49.76,4.35c-8.3,0.62-16.59,1.24-24.89,1.86
						c-8.29,0.61-16.58,1.28-24.87,1.79c-8.29,0.55-16.58,1.09-24.87,1.64c-8.29,0.54-16.57,1.13-24.85,1.58
						c0.11,0,0.16-0.01,0.27-0.01c2.68-0.07,3.18,0.04,0.26,0.3c-2.54,0.23-7.76,0.52-10.39,0.59c-3.08,0.08-2.8-0.08-0.31-0.3
						c-61.73,3.78-123.33,6.44-184.6,9.12c-30.65,1.14-61.22,2.28-91.7,3.41c-30.49,0.97-60.89,1.93-91.19,2.89l84.48-2.26
						l10.56-0.28l10.56-0.35l21.11-0.7l42.22-1.39c14.07-0.41,28.14-1.04,42.2-1.58c14.07-0.55,28.13-1.11,42.19-1.66
						c14.06-0.56,28.11-1.29,42.17-1.92l21.08-0.97l10.54-0.48l10.53-0.57c12.24-0.85,24.44-1.69,36.88-2.55
						c3.38-0.22,7.82-0.39,9.19-0.35c0.95,0.05-1.52,0.32-5,0.55c-3.46,0.23-6.87,0.47-10.31,0.7c10.64-0.56,20.07-0.94,26.79-1.19
						c6.73-0.21,10.76-0.17,10.6,0.17c-1.13,0.75-19.36,2.55-41.47,3.69c-59.16,3.61-118.18,6.09-177.19,8.44
						c-6.38,0.31-12.77,0.52-19.15,0.78c-6.45,0.32-12.83,0.63-19.24,0.95c91.81-2.82,183.43-6.5,274.42-12.19
						c3.9-0.26,7.52-0.44,10.19-0.54c2.67-0.09,4.38-0.11,4.47,0c0.21,0.24-6.1,0.85-13.94,1.37
						c-80.12,5.81-160.84,9.91-241.92,13.3c-20.27,0.74-40.57,1.48-60.88,2.23c-10.16,0.35-20.32,0.77-30.48,1.07
						c-10.17,0.3-20.34,0.59-30.52,0.89c-20.35,0.59-40.72,1.18-61.1,1.77c-20.38,0.45-40.78,0.9-61.19,1.35
						c-13.39,0.51-26.8,1.03-40.23,1.55c-13.43,0.53-26.88,0.89-40.37,1.35c-26.98,0.86-54.1,1.73-81.48,2.6
						c6.89-0.08,13.87-0.16,20.86-0.24c22.19-0.33,43.96-0.66,65.41-0.98c10.72-0.2,21.36-0.39,31.93-0.59
						c10.57-0.27,21.07-0.53,31.51-0.8c20.88-0.57,41.53-1.13,62.05-1.68c10.26-0.26,20.48-0.65,30.67-1
						c10.2-0.36,20.37-0.72,30.53-1.08c81.31-2.82,161.88-6.5,247.73-10.88c4.3-0.24,7.88-0.3,8.45-0.21
						c0.47,0.1-2.44,0.36-6.8,0.57c-10.48,0.56-20.84,1.11-31.11,1.66c-10.27,0.59-20.46,0.99-30.59,1.5
						c-20.26,0.98-40.28,1.94-60.27,2.9c-40,1.66-79.92,3.55-121.52,4.85c-17.23,0.59-34.25,1.17-51.09,1.75
						c-16.84,0.48-33.5,0.96-50,1.44c-33.01,0.93-65.42,1.96-97.45,2.68c131.01-2.2,256.6-6.44,386.28-12.37
						c5.66-0.28,11.37-0.45,14.99-0.47c0.3-0.08,1.45-0.18,3.19-0.3c16.19-1.1,33.86-2.18,51.91-3.24c3.45-0.22,7.81-0.38,9.65-0.33
						C1467.81,940.54,1465.72,940.76,1461.87,941.01z M1284.01,604.48c1.26,0.07,2.29,0.12,3.25,0.17c-3.51-0.1-7.28-0.2-11.44-0.32
						c0,0,0,0-15.96-1.05C1259.86,603.28,1271.96,603.88,1284.01,604.48z M1484.41,606.07c-0.03,0-0.03,0-0.11,0
						c5.32,0.52,9.17,0.9,9.17,0.9C1489.75,606.59,1486.84,606.31,1484.41,606.07z M298.04,826.21c-0.24-0.35-0.51-0.69-0.72-1.04
						l-0.62-1.06c-0.4-0.71-0.86-1.4-1.24-2.11c-0.64-1.44-1.45-2.84-1.89-4.28l-0.37-0.98c-0.14-0.32-0.21-0.54-0.26-0.79
						l-0.39-1.47c-0.12-0.49-0.17-1-0.25-1.5l-0.12-0.75l-0.04-0.76c-0.01-0.46-0.06-0.92-0.05-1.37l0.7-1.18
						c0.45-0.75,0.94-1.48,1.44-2.21l0.89-1.23c0.46-0.65,0.98-1.28,1.47-1.92c0.97-1.29,2.05-2.54,3.09-3.81
						c1.11-1.24,2.14-2.52,3.31-3.73c4.52-4.93,9.46-9.64,14.62-14.15c5.17-4.51,10.65-8.75,16.21-12.9
						c5.65-4.05,11.37-8.03,17.3-11.75c11.81-7.5,24.11-14.35,36.7-20.69c6.28-3.21,12.69-6.18,19.09-9.16l9.7-4.29
						c3.22-1.45,6.53-2.74,9.78-4.12c-14.98,6.4-29.65,13.29-43.9,20.89c-8.9,4.64-17.63,9.56-26.16,14.73
						c-8.48,5.24-16.77,10.74-24.69,16.64c-7.92,5.89-15.47,12.18-22.42,18.88c-3.43,3.38-6.75,6.83-9.78,10.41
						c-1.5,1.79-2.97,3.6-4.31,5.42c-0.79,1.04-1.45,2-2.11,3.07l-0.7,1.16c-0.03,0.44,0.02,0.9,0.02,1.35l0.03,0.74l0.1,0.74
						c0.08,0.49,0.12,0.99,0.23,1.48l0.36,1.46c0.05,0.25,0.11,0.47,0.25,0.78l0.36,0.98c0.43,1.45,1.22,2.85,1.85,4.3
						c0.37,0.71,0.82,1.41,1.22,2.13l0.61,1.07C297.54,825.52,297.81,825.86,298.04,826.21z M1418.21,610.94
						c-18.08-1.04-32.15-2.15-45.45-3.04c-11.91-0.15-24.34-0.38-36.93-0.69c-16.92-0.29-33.62-0.57-50.15-0.85
						c-16.53-0.16-32.89-0.32-49.12-0.48c4.22,0.33-3.57,0.31-7.54,0.37c-4.1,0.04-8.16,0.08-12.21,0.13
						c8.65,0.05,17.31,0.01,25.99,0.14c8.68,0.11,17.37,0.22,26.08,0.33c17.42,0.16,34.93,0.64,52.59,1c3.98,0.09,8,0.17,12.06,0.26
						c4.05,0.11,8.13,0.23,12.23,0.35c8.19,0.24,16.45,0.48,24.66,0.72C1386.84,609.6,1403.07,610.31,1418.21,610.94z
						 M1659.86,621.19c0.97,0.1,1.85,0.19,2.95,0.3c0,0,0,0-6.5,0.12C1656.32,621.61,1657.87,621.43,1659.86,621.19z
						 M1670.11,620.97c-1.6-0.13-3.2-0.26-4.94-0.4C1666.96,620.49,1668.55,620.68,1670.11,620.97z M1624.71,617.55
						c2.68,0.3,4.31,0.48,6.42,0.66C1624.73,617.55,1624.71,617.55,1624.71,617.55z M1593.27,600.68l-17.89,1.61l19.49-1.42
						L1593.27,600.68z"/>
				</g>
			</g>
		</g>
	</g>
</g>
<g>
	<g>
		<g>
			<path class="st1" d="M436.37,427.48c-0.13-0.5-0.39-0.94-0.79-1.3c-1.21-1.44-2.44-2.86-3.69-4.26c-1.24-1.41-2.51-2.8-3.8-4.17
				c-0.31-0.44-0.71-0.75-1.2-0.94c0.13,0.5,0.39,0.94,0.79,1.3c1.21,1.44,2.44,2.86,3.69,4.26c1.24,1.41,2.51,2.8,3.8,4.17
				C435.49,426.98,435.89,427.3,436.37,427.48z"/>
			<path class="st1" d="M432.67,424.21c-0.17-0.58-0.49-1.09-0.94-1.53c-1.39-1.74-2.81-3.46-4.25-5.16
				c-1.43-1.71-2.88-3.4-4.36-5.07c-0.35-0.52-0.8-0.91-1.35-1.18c0.17,0.58,0.49,1.09,0.94,1.53c1.39,1.74,2.81,3.46,4.25,5.16
				c1.43,1.71,2.88,3.4,4.36,5.07C431.67,423.54,432.12,423.94,432.67,424.21z"/>
			<path class="st1" d="M433.13,420.46c0-0.28-0.12-0.51-0.37-0.68c-0.65-0.64-1.31-1.26-2.01-1.86c-0.61-0.53-1.87-2.02-2.82-2.02
				c0,0.28,0.12,0.51,0.37,0.68c0.65,0.64,1.31,1.26,2.01,1.86C430.92,418.97,432.18,420.46,433.13,420.46z"/>
			<path class="st1" d="M432.15,420.92c0.2,0-2.11-2.55-2.05-2.49c-0.52-0.51-1.65-2-2.53-2c-0.2,0,2.11,2.55,2.05,2.49
				C430.14,419.42,431.28,420.92,432.15,420.92z"/>
			<path class="st1" d="M434.55,422.79c-0.37-0.69-0.87-1.29-1.5-1.8c-2.08-2.06-4.18-4.09-6.31-6.1c-2.11-2.02-4.25-4.02-6.41-5.99
				c-0.53-0.6-1.16-1.07-1.87-1.41c0.37,0.69,0.87,1.29,1.5,1.8c2.08,2.06,4.18,4.09,6.31,6.1c2.11,2.02,4.25,4.02,6.41,5.99
				C433.21,421.98,433.84,422.45,434.55,422.79z"/>
			<path class="st1" d="M431.51,423.59c-0.02-0.4-0.18-0.74-0.48-1.04c-0.83-1.13-1.68-2.24-2.56-3.33
				c-0.87-1.1-1.76-2.18-2.67-3.24c-0.22-0.36-0.52-0.59-0.91-0.7c0.02,0.4,0.18,0.74,0.48,1.04c0.83,1.13,1.68,2.24,2.56,3.33
				c0.87,1.1,1.76,2.18,2.67,3.24C430.82,423.25,431.13,423.48,431.51,423.59z"/>
			<path class="st1" d="M435.59,420.39c-0.06-0.32-0.24-0.57-0.55-0.74c-0.86-0.71-1.74-1.38-2.64-2.04
				c-0.8-0.59-2.44-2.23-3.59-2.23c0.06,0.32,0.24,0.57,0.55,0.74c0.86,0.71,1.74,1.38,2.64,2.04
				C432.79,418.75,434.43,420.39,435.59,420.39z"/>
			<path class="st1" d="M435.45,421.35c-0.23-0.5-0.58-0.9-1.06-1.2c-1.51-1.29-3.04-2.56-4.59-3.81c-1.54-1.26-3.1-2.49-4.68-3.7
				c-0.4-0.4-0.87-0.66-1.4-0.79c0.23,0.5,0.58,0.9,1.06,1.2c1.51,1.29,3.04,2.56,4.59,3.81c1.54,1.26,3.1,2.49,4.68,3.7
				C434.45,420.96,434.92,421.23,435.45,421.35z"/>
			<path class="st1" d="M433.56,421.49c-0.32-0.63-0.77-1.17-1.34-1.61c-1.88-1.82-3.78-3.62-5.71-5.39
				c-1.91-1.79-3.85-3.55-5.81-5.28c-0.49-0.54-1.06-0.94-1.71-1.22c0.32,0.63,0.77,1.17,1.34,1.61c1.88,1.82,3.78,3.62,5.71,5.39
				c1.91,1.79,3.85,3.55,5.81,5.28C432.34,420.82,432.91,421.22,433.56,421.49z"/>
			<path class="st1" d="M434.35,427.78c-0.02-0.41-0.19-0.77-0.49-1.08c-0.84-1.19-1.72-2.36-2.61-3.51
				c-0.88-1.16-1.79-2.3-2.73-3.42c-0.22-0.38-0.53-0.63-0.92-0.76c0.02,0.41,0.19,0.77,0.49,1.08c0.84,1.19,1.72,2.36,2.61,3.51
				c0.88,1.16,1.79,2.3,2.73,3.42C433.65,427.4,433.96,427.65,434.35,427.78z"/>
			<path class="st1" d="M437.44,423.47c-0.28-0.55-0.68-1-1.21-1.36c-1.7-1.49-3.41-2.96-5.15-4.41c-1.73-1.46-3.48-2.89-5.25-4.3
				c-0.44-0.45-0.96-0.77-1.55-0.95c0.28,0.55,0.68,1,1.21,1.36c1.7,1.49,3.41,2.96,5.15,4.41c1.73,1.46,3.48,2.89,5.25,4.3
				C436.33,422.98,436.85,423.29,437.44,423.47z"/>
			<path class="st1" d="M432.23,422.88c-0.17-0.55-0.47-1.03-0.91-1.43c-1.36-1.62-2.74-3.21-4.15-4.78
				c-1.39-1.58-2.81-3.15-4.26-4.69c-0.35-0.49-0.79-0.84-1.32-1.08c0.17,0.55,0.47,1.03,0.91,1.43c1.36,1.62,2.74,3.21,4.15,4.78
				c1.39,1.58,2.81,3.15,4.26,4.69C431.26,422.29,431.7,422.65,432.23,422.88z"/>
			<path class="st1" d="M436.54,424.81c-0.31-0.64-0.75-1.18-1.31-1.63c-1.85-1.85-3.72-3.67-5.61-5.48
				c-1.88-1.82-3.79-3.61-5.71-5.37c-0.48-0.55-1.04-0.96-1.69-1.24c0.31,0.64,0.75,1.18,1.31,1.63c1.85,1.85,3.72,3.67,5.61,5.48
				c1.88,1.82,3.79,3.61,5.71,5.37C435.33,424.11,435.89,424.53,436.54,424.81z"/>
			<path class="st1" d="M433.77,425.67c-0.19-0.61-0.52-1.14-0.99-1.61c-1.46-1.84-2.94-3.65-4.45-5.45
				c-1.5-1.81-3.02-3.59-4.56-5.36c-0.37-0.54-0.84-0.96-1.4-1.26c0.19,0.61,0.52,1.14,0.99,1.61c1.46,1.84,2.94,3.65,4.45,5.45
				c1.5,1.81,3.02,3.59,4.56,5.36C432.74,424.96,433.21,425.38,433.77,425.67z"/>
			<path class="st1" d="M433.16,423.27c-0.3-0.69-0.73-1.29-1.3-1.8c-1.84-2.07-3.71-4.12-5.6-6.14c-1.88-2.04-3.78-4.05-5.7-6.04
				c-0.47-0.6-1.03-1.08-1.7-1.43c0.3,0.69,0.73,1.28,1.3,1.8c1.84,2.07,3.71,4.12,5.6,6.14c1.88,2.04,3.78,4.05,5.7,6.04
				C431.93,422.44,432.5,422.92,433.16,423.27z"/>
			<path class="st1" d="M432.93,421.42c-0.22-0.55-0.57-1.01-1.05-1.38c-1.51-1.54-3.05-3.05-4.61-4.54
				c-1.55-1.5-3.11-2.98-4.71-4.43c-0.39-0.46-0.87-0.8-1.42-0.99c0.22,0.55,0.57,1.01,1.05,1.38c1.51,1.54,3.05,3.05,4.61,4.54
				c1.55,1.5,3.11,2.98,4.71,4.43C431.9,420.89,432.38,421.22,432.93,421.42z"/>
			<path class="st1" d="M438.44,422.49c-0.13-0.38-0.37-0.67-0.74-0.88c-1.1-0.88-2.22-1.74-3.36-2.57
				c-1.13-0.85-2.28-1.67-3.45-2.46c-0.31-0.29-0.66-0.44-1.06-0.45c0.13,0.38,0.37,0.67,0.74,0.88c1.1,0.88,2.22,1.74,3.36,2.57
				c1.13,0.85,2.28,1.67,3.45,2.46C437.68,422.33,438.04,422.48,438.44,422.49z"/>
			<path class="st1" d="M431.54,422.11c-0.01-0.36-0.16-0.66-0.45-0.91c-0.78-0.96-1.58-1.9-2.41-2.82
				c-0.48-0.54-2.34-3.28-3.37-3.28c0.01,0.36,0.16,0.66,0.45,0.91c0.78,0.96,1.58,1.9,2.41,2.82
				C428.65,419.36,430.52,422.11,431.54,422.11z"/>
			<path class="st1" d="M437.67,426.76c-0.2-0.54-0.53-1-0.99-1.38c-1.44-1.53-2.91-3.04-4.4-4.53c-1.48-1.5-2.98-2.97-4.5-4.43
				c-0.37-0.46-0.83-0.8-1.37-1c0.2,0.54,0.53,1,0.99,1.38c1.44,1.53,2.91,3.04,4.4,4.53c1.48,1.5,2.98,2.97,4.5,4.43
				C436.67,426.23,437.13,426.56,437.67,426.76z"/>
			<path class="st1" d="M435.89,422.29c-0.33-0.6-0.77-1.09-1.35-1.49c-1.87-1.66-3.77-3.29-5.68-4.9c-1.9-1.62-3.83-3.22-5.78-4.79
				c-0.49-0.5-1.05-0.86-1.69-1.08c0.33,0.6,0.77,1.09,1.35,1.49c1.87,1.66,3.77,3.29,5.68,4.9c1.9,1.62,3.83,3.22,5.78,4.79
				C434.69,421.71,435.25,422.07,435.89,422.29z"/>
			<path class="st1" d="M432.24,425.83c0.02-0.36-0.11-0.68-0.38-0.97c-0.7-1.05-1.42-2.07-2.18-3.08c-0.35-0.48-2.15-3.64-3.1-3.64
				c-0.02,0.36,0.11,0.68,0.38,0.97c0.7,1.05,1.42,2.07,2.18,3.08C429.49,422.67,431.29,425.83,432.24,425.83z"/>
			<path class="st1" d="M437.06,421.16c-0.09-0.34-0.3-0.6-0.63-0.78c-0.95-0.76-1.93-1.49-2.92-2.19
				c-0.86-0.62-2.71-2.42-3.94-2.42c0.09,0.34,0.3,0.6,0.63,0.78c0.95,0.76,1.93,1.49,2.92,2.19
				C433.98,419.36,435.83,421.16,437.06,421.16z"/>
			<path class="st1" d="M438.57,426.1c-0.16-0.47-0.44-0.85-0.85-1.16c-1.26-1.25-2.55-2.47-3.86-3.66c-1.3-1.21-2.62-2.4-3.96-3.56
				c-0.34-0.39-0.74-0.64-1.22-0.76c0.16,0.47,0.44,0.85,0.85,1.16c1.26,1.25,2.55,2.47,3.86,3.66c1.3,1.21,2.62,2.4,3.96,3.56
				C437.69,425.73,438.09,425.98,438.57,426.1z"/>
			<path class="st1" d="M433.98,420.68c-0.12-0.41-0.37-0.74-0.75-0.98c-1.12-1.02-2.26-2.01-3.42-2.98
				c-1.15-0.98-2.32-1.94-3.51-2.87c-0.31-0.33-0.67-0.52-1.09-0.57c0.12,0.41,0.37,0.74,0.75,0.98c1.12,1.02,2.26,2.01,3.42,2.98
				c1.15,0.98,2.32,1.94,3.51,2.87C433.2,420.44,433.56,420.62,433.98,420.68z"/>
		</g>
	</g>
</g>
<g>
	<g>
		<g>
			<g>
				<path class="st2" d="M969.87,888.27c0.08-0.76,0.18-1.51,0.26-2.25c0.16,1.44,0.17,3.59,0.09,6.03
					c2.1-23.68,0.84-54.87-1.26-74.97c0.07-7.25-0.55-13.7-1.4-14.39c-0.85-0.67-1.61,4.67-1.69,11.98
					c-0.1,1.61-0.17,3.49-0.31,4.65c-1.32,10.44-2.22,23.18-2.9,37.24c0.25-2.71,0.5-5.53,0.75-8.24c-0.21,4.06-0.42,8.07-0.44,12.6
					c0.16-0.47,0.31-1.09,0.47-1.56c-1.13,13.98-0.73,33.15,0.9,42.82c1.63,9.7,3.86,6.28,4.99-7.7L969.87,888.27z"/>
				<path class="st2" d="M974.82,862.18c-0.56,8.37-1.16,16.41-1.77,24.46l-0.29,1.59l1.31-0.54l-0.08-0.16
					c-1.1-7.54-1.55-19.97-1.86-31.41l-0.19-4.08c-0.17-1.96-0.43-3.26-0.7-3.67c-0.63-0.95-1.22,2.61-1.33,7.95l-0.12,6.15
					c-0.75,14.97-0.78,38.54,1.43,46.89c0.51,1.88,1.16,0.23,1.76-0.17c0.87,0.57,1.62-5.06,1.69-12.54
					c0.06-7.49-0.59-13.93-1.47-14.44c0.06-1.27,0.12-2.58,0.18-3.83c0.11,0.99,0.21,2,0.31,3c-0.76-2.12-0.93-8.94-1.33-14.01
					l-0.21-7.61l-2.03,4.3l0.27,3.96c0.09-0.3,0.21-0.88,0.22-0.83c0.56,7.54,1.11,14.63,1.47,22.89l0.74,10.39
					c0.39,2.82,0.96,2.54,1.31-0.54l0.44-4.61c-0.09,0.7-0.17,1.39-0.26,2.08c0.46-10.62,0.73-21.83,1.22-32.34
					c0.1-1.66,0.01-3.68-0.19-4.56C975.14,859.74,974.91,860.46,974.82,862.18z"/>
				<g>
					<path class="st2" d="M975.09,899.68c-0.15,1.72-0.32,3.38-0.28,5.83c0.09,0.59,0.14,0.89,0.16,1.05
						c0.09-0.91,0.22-2.14,0.35-3.36C975.57,900.78,975.37,899.53,975.09,899.68z"/>
					<path class="st2" d="M974.97,906.55c-0.09,0.84-0.15,1.4-0.15,1.4c0.07-0.32,0.13-0.64,0.19-0.94
						c-0.01-0.27-0.02-0.28-0.02-0.28S974.99,906.74,974.97,906.55z"/>
					<path class="st2" d="M971.24,442.5c0.43-32.87,0.72-65.88,0.93-98.87c0.01-1.11-0.08-2.04-0.21-2.09
						c-0.11-0.05-0.22,0.8-0.22,1.83c-0.23,33.01-0.52,65.85-0.95,98.72c0,1.11,0.09,2.02,0.21,2.17
						C971.11,444.3,971.22,443.53,971.24,442.5z"/>
					<path class="st2" d="M983.74,196.24c0.1,0.78,0.23,0.75,0.32-0.06c0.08-0.69,0.09-1.94-0.01-2.71
						c-0.08-0.66-0.24-0.63-0.32,0.06C983.65,194.34,983.66,195.59,983.74,196.24z"/>
					<path class="st2" d="M993.6,203.31c0.18,4.61,0.39,8.99,0.73,12.89c0.05,0.73,0.04,1.55-0.01,2.16
						c0.2-0.27,0.39,0.61,0.47,2.27c1.69,32.76,2.36,67.99,3.26,102.69c0.16,0.23,0.32,0.69,0.47,1.47
						c0.51,2.4,0.77,7.22,0.68,12.22l-0.13,3.77c-0.29,15.24-0.52,30.44-0.84,45.6c0.23,3.1,0.39,6.7,0.43,10.61
						c0.63,13.11,1.23,26.25,1.69,39.69c0.14-0.85,0.31-1.36,0.49-1.35c0.44,0.26,0.76,3.37,0.75,7c0.01,1.83,0.02,3.66,0.03,5.49
						c0.11-5.26,0.22-10.52,0.34-15.76c0.01-0.76,0.04-1.46,0.07-2.09c0.02-5.76,0.01-11.59-0.03-17.51
						c-0.39-51.69-2.04-100.29-3.95-148.51c-0.07-0.79-0.06-2.03,0.05-2.73c0.1-0.47,0.25-0.39,0.31,0.5
						c2.19,30.4,5.07,56.69,6.5,91.06c1.72,40.9,3.16,81.29,4.27,123.21c0,43.84,1.05,84.39,1.83,129.1
						c1.07,60.39,1.24,117.44,1.34,176.53c0.35,22.14-1.47,42.42-4.04,45.29c-1.56,1.67-3.04-3.34-4.04-12.44
						c-0.01,1.81-0.02,3.6-0.03,5.4l-0.31,8.56c-0.31,8.1-0.95,15.01-1.82,19.36l-1.08,5.99c-2.05,7.97-3.77,20.88-5.92,27.4
						l-0.81-1.46l-0.24,1.54c-0.59,5.09-1.37,8.52-2.19,9.7l-0.98-0.49c-1.12-1.07-2.17-3.61-3.16-7.7
						c-0.42,0.14-0.82-0.35-1.21-1.41c-1.01,3.49-2.06,5.14-3.22,2.38c-0.29,2.1-0.72,1.75-0.96-0.75c-0.08-0.86-0.13-1.9-0.15-2.96
						c0,0.02,0,0.03,0,0.03c-0.26,1.15-0.33,1.5-0.62,3.05c-0.09,2.09-0.15,3.29-0.15,3.29c-0.17,5.55-0.17,5.55-0.34,10.35
						c-0.35,4.14-0.82,6.69-0.82,6.69c-1.75,4.58-1.75,4.58-2.51,3.87c-0.07-0.27-0.15-0.57-0.21-0.89
						c-0.25,3.66-0.27,3.92-0.35,4.91c-0.13,1.03-0.29,1.74-0.29,1.74c-0.41,0.16-0.41,0.16-0.55,0.79
						c-0.16,0.2-0.31,0.15-0.31,0.15c-0.45-2.05-0.45-2.05-0.58-2.1c-0.12-0.49-0.22-1.15-0.22-1.15c-0.14-2.4-0.19-3.35-0.21-3.75
						c1.05-5.14,1.05-5.16,1.05-5.16c-0.36-1.12-0.36-1.12-0.36-1.12c0.48-1.2,0.48-1.2,0.48-1.2c-0.44,0.68-0.44,0.68-0.44,0.68
						c0.27-2.6,0.27-2.6,0.27-2.6c-0.39,2.97-0.39,2.97-0.39,2.97c0.16-6.15,0.16-6.15,0.15-8.61c0.05-2.56-0.05-4.75-0.06-5.01
						c-0.14,0.21-0.24,0.23-0.24,0.23c0.17-6.58,0.17-6.58,0.36-12.98c0.1-0.59,0.2-1.06,0.29-1.5c-0.12-0.62-0.19-1.84-0.16-3.11
						c0.02-1.13,0.05-2.24,0.08-3.36c-0.02-0.25-0.04-0.49-0.06-0.72c-0.02,0-0.03,0.01-0.03,0.01c-0.08-1.14-0.14-1.94-0.21-2.84
						c-0.05-0.57-0.05-0.59-0.05-0.59c0,0,0-0.02,0.01-0.03c-0.14-1.96-0.35-4.79-0.9-12.28c0.05-1.99,0.12-3.84,0.21-5.59
						c-0.07,0.57-0.13,1.11-0.2,1.63c-0.14,1.05-0.53,0.09-0.57,0.66c-0.83,14.04-1.17,29.34-1.61,44.43
						c0.05,2.71-0.18,5.24-0.5,5.64c-0.32,0.35-0.61-1.58-0.65-4.35c-2.09-30.57-1.81-68.11-0.14-99.52
						c0.2-8.27,0.38-16.58,0.54-24.92c-0.06,0.4-0.13,0.8-0.2,1.19c0.1-2.16,0.2-4.32,0.3-6.47c0.01-0.23,0.01-0.47,0.01-0.7
						c-0.24,1.64-0.48,3.27-0.71,4.9c-0.07,1.13-0.14,2.25-0.21,3.4c-0.29,19.34-1.4,36.88-2.1,55.56
						c-0.38,10.04-1.06,18.66-1.56,28.16c-0.04,2.45-0.29,4.14-0.58,3.85c-0.28-0.28-0.48-2.56-0.44-4.95
						c-0.5-31.67-0.04-67.82,2.39-93.18c0.02-5.78,0.21-11.35,0.65-15.97c0-0.08,0.01-0.18,0.01-0.26c-0.2,1.21-0.4,2.35-0.59,3.56
						c0.15-4.32,0.64-6.63,0.84-10.57c-0.27,0.45-0.54,1.01-0.81,1.46c0.51-21.33,0.28-44.4,1.44-64.15
						c0.02-0.8,0.04-1.54,0.07-2.28c-0.57-8.5-1.11-17.1-1.19-27.19c-0.09,3.41-0.17,6.75-0.26,10.17
						c-0.35-7.32-0.58-14.58-0.54-22.42c0.08-21.22,1.32-44.96,3.44-56.18c-0.25-41.12-0.46-82.3-0.97-123.34
						c-0.04-2.12,0.14-4.02,0.38-4.4c0.24-0.22,0.47,1.18,0.5,3.3c0.83,29.43,1.28,59.28,1.65,89.2c0.42-25,0.81-50.13,0.9-75.75
						c-0.03-3.26-0.07-6.55-0.1-9.84c-0.04-3.25,0.03-6.48,0.13-9.7c0.01-32.73,0.15-63.8-0.45-97.19
						c-0.52-28.52-1.07-53.47-1.82-81.87c-1.05-39.88-2.12-76.21-2.12-115.63c-0.07-5.24,0.37-10.09,0.98-10.71
						c0.61-0.63,1.17,3.17,1.25,8.43c1.9,82.19,4.19,162.88,3.89,248.81c-0.03,9.27-0.07,18.39-0.11,27.46
						c0.08-0.12,0.16-0.23,0.25-0.23c0.33,0,0.64,0.86,0.9,2.31c0.08-10.3,0.22-20.68,0.39-31.1c-0.7-28.96-1.4-57.97-1.04-88.85
						c0.26-21.21,0.98-40.4,1.65-60.01c-0.38-24.85-0.87-49.63-1.19-74.73c-0.04-1,0.02-2.04,0.14-2.4
						c0.12-0.36,0.24,0.18,0.28,1.19c0.76,17.26,1.33,34.95,1.85,52.8c0.38-2.81,0.88-4.49,1.42-4.26c0.56,0.22,1.07,2.4,1.42,5.74
						c0.02-4.05,0.02-8.09,0.04-12.14c0.02-2.5,0.24-4.47,0.52-4.4c0.3,0.05,0.52,2.04,0.51,4.42c-0.03,16.51-0.08,32.99-0.12,49.47
						c0.31,19.78,0.57,39.49,0.8,59.31c0.37-2.75,0.83-4.77,1.34-5.73c0,0,0.01,0,0.01,0c-0.01-3.07-0.03-6.13-0.04-9.18
						c-1.57-55.98-2.44-113.29-2.13-171.07c0-1.13,0.1-2.07,0.23-2.09c0.13-0.02,0.24,0.85,0.23,1.87
						c-0.09,17.44-0.08,34.84,0.02,52.17c0-0.03,0-0.04,0.01-0.07c0.08-0.7,0.22-0.83,0.32-0.06c0.08,0.67,0.08,2.03,0.01,2.72
						c-0.09,0.8-0.23,0.73-0.31,0.08c0.21,32.3,0.75,64.38,1.54,96.03c-0.13-29.41-0.21-58.82,0.04-88.19
						c-0.16-3.2-0.33-6.4-0.48-9.65c-0.03-0.88,0.05-2.04,0.17-2.4c0.11-0.25,0.24,0.4,0.27,1.31c0.04,0.9,0.08,1.8,0.12,2.7
						c0.05-5.56,0.59-9.85,1.26-9.76c0.69,0.31,1.21,5.09,1.19,10.86c0.13,15.47,0.2,30.88,0.23,46.3c0.04,1.67,0.08,3.33,0.12,5
						c0.1,1.68,0.21,3.35,0.32,5.03c0.27-23.97,0.59-47.9,0.94-71.68c-0.01-2.04,0.19-3.78,0.43-3.82c0.24-0.05,0.44,1.6,0.45,3.65
						c0.96,41.91,1.61,84.33,2.04,126.94c1.03,13.99,2.07,28.01,3.09,42.3c0.02-1.8,0.03-3.62,0.03-5.44
						c0-46.32-2.93-85.63-3.53-130.47c-0.03-1.12,0.07-2.06,0.19-2.2c0.12-0.12,0.24,0.64,0.24,1.78c0.4,21.89,1.4,41.86,2.11,63.58
						c0.59,17.99,1.13,35.1,1.9,51.81c-0.28-34.18-1.55-66.95-2.12-100.81c-0.06-1.48,0-2.97,0.13-3.91
						c-0.07-0.08-0.13-0.38-0.17-0.83c-0.33-4.23-0.56-8.85-0.76-13.56c-0.06-0.9,0-2.04,0.13-2.52
						C993.41,201.76,993.53,202.31,993.6,203.31z M979.51,798c-0.05,0.33-0.1,0.6-0.14,0.85c0.08-0.92,0.16-1.9,0.24-2.99
						c0,0,0,0,0.97-4.17C980.58,791.69,980.05,794.85,979.51,798z M983.07,850.35c0-0.01,0-0.01,0-0.03
						c-0.32,1.39-0.54,2.4-0.54,2.4C982.75,851.75,982.93,850.99,983.07,850.35z M974.62,516.08c-0.02,17.98-0.25,35.77-0.86,53.53
						c-0.05-4.34-0.11-8.66-0.16-13C973.9,543.14,974.24,529.64,974.62,516.08z M975.84,833.11c0.51-4.73,1.13-8.42,1.77-11.9
						c-0.12-3.11-0.16-6.36-0.13-9.65c0.07-8.85,0.2-17.47,0.38-25.95c-0.34,1.1-0.3-0.93-0.34-1.97c-0.03-1.07-0.05-2.13-0.08-3.19
						c-0.24,9.05-0.51,18.13-0.8,27.37C976.37,816.13,976.22,825.18,975.84,833.11z M977.15,896.33c-0.04,0.25-0.08,0.49-0.12,0.77
						c0,0,0,0-0.51-1.69C976.51,895.41,976.78,895.81,977.15,896.33z M978.01,899c0.02-0.42,0.05-0.84,0.07-1.29
						C978.27,898.17,978.2,898.58,978.01,899z M978.66,887.1c-0.14,0.7-0.22,1.13-0.28,1.68
						C978.66,887.11,978.66,887.1,978.66,887.1z M993.7,878.66l-2.56-4.64l2.46,5.06L993.7,878.66z"/>
				</g>
			</g>
		</g>
	</g>
</g>
<g>
	<g>
		<g>
			<g>
				<path class="st3" d="M368.28,64.32c2.94-0.71,5.85-1.29,8.73-1.87c-1.38,0.35-2.93,0.75-4.62,1.18
					c-1.69,0.45-3.53,0.94-5.48,1.46c-3.92,1.02-8.32,2.16-13.01,3.37c22.77-5.77,47.48-10.9,72.93-15.16
					c25.45-4.29,51.64-7.76,77.36-10.67c25.73-2.92,50.94-5.27,74.62-7.39c23.68-2.15,45.81-3.9,65.26-5.47
					c28.11-1.43,53.06-2.94,55.71-3.9c2.58-0.95-18.15-0.99-46.53,0.35c-6.25,0.22-13.55,0.47-18.07,0.63
					c-20.29,0.45-42.82,1.35-67.11,2.69c-24.28,1.45-50.36,3.22-77.85,6.08c10.59-0.95,21.64-1.87,32.21-2.62
					c-15.83,1.27-31.5,2.81-49.18,5c1.87-0.11,4.28-0.21,6.16-0.29c-27.34,2.71-59.84,7.68-89.99,14.42
					c-3.77,0.81-7.49,1.77-11.17,2.65c-3.68,0.92-7.32,1.72-10.87,2.73c-7.11,1.97-13.99,3.74-20.44,5.82
					c-3.23,1.01-6.37,1.99-9.42,2.94c-3.04,0.96-5.94,2.03-8.75,3c-2.8,0.99-5.48,1.94-8.03,2.85c-2.56,0.9-4.94,1.92-7.2,2.81
					c-4.53,1.83-8.28,3.37-11.26,4.68c-2.95,1.39-5.15,2.49-6.62,3.31c-2.93,1.64-2.92,2.13-0.16,1.54c1.38-0.3,3.45-0.87,6.19-1.71
					c1.36-0.44,2.91-0.88,4.63-1.37c1.71-0.51,3.59-1.07,5.64-1.68c4.09-1.23,8.81-2.78,14.25-4.27c5.42-1.54,11.45-3.4,18.18-5.12
					c3.98-1.04,7.94-2.15,11.93-3.12L368.28,64.32z"/>
				<path class="st3" d="M469.92,50.39c-16.24,1.8-32.13,4.07-47.86,6.54c-7.86,1.33-15.68,2.59-23.46,4.14l-5.84,1.11l-2.92,0.56
					l-2.91,0.62l-11.63,2.49c-2.06,0.36-4.11,0.79-6.16,1.23l2.36,0.74l0.58-0.24c14.28-4.04,33.39-8.69,54.53-12.67
					c21.13-4.02,44.25-7.43,66.43-10.1l15.81-1.9c7.57-0.95,12.59-1.67,14.14-2.11c3.64-0.96-10.25-0.33-30.97,1.9
					c-7.96,0.94-15.93,1.78-23.9,2.87c-14.57,1.69-31.22,4.15-48.47,7.17c-17.26,2.99-35.07,6.94-51.98,11.25
					c-4.22,1.13-8.39,2.24-12.48,3.34c-4.07,1.21-8.07,2.41-11.97,3.57c-1.95,0.59-3.88,1.18-5.77,1.76
					c-1.89,0.63-3.75,1.26-5.58,1.88c-3.66,1.25-7.2,2.45-10.61,3.61c-3.37,1.28-6.6,2.51-9.68,3.68c-3.06,1.21-6,2.27-8.69,3.45
					c-5.4,2.34-10.06,4.42-13.83,6.2c-3.37,1.67-3.45,2.07-2.51,1.98c0.94-0.09,2.94-0.6,3.81-0.59c-0.89,0.81,3.94-0.65,12.43-3.64
					c8.52-2.91,20.8-7.04,34.9-11.4c28.27-8.66,52.88-14.42,54.67-15.75c4.88-0.96,9.94-1.96,14.78-2.91
					c-3.78,0.9-7.64,1.81-11.49,2.73c1.99-0.61,5.13-1.43,9.01-2.37c3.88-0.96,8.54-1.87,13.55-2.93
					c5.01-1.08,10.39-2.04,15.74-3.03c2.67-0.49,5.34-0.98,7.95-1.46c2.61-0.44,5.17-0.87,7.62-1.29c4.91-0.78,9.82-1.57,14.73-2.23
					c4.91-0.68,9.82-1.43,14.74-2.04c-5.64-0.01-11.28,0.13-16.94,0.19c-5.12,0.74-10.23,1.68-15.34,2.52
					c1.18-0.09,3.46-0.3,3.27-0.27c-14.59,2.4-28.7,5.24-43.13,8.25c-3.6,0.82-7.22,1.64-10.88,2.47
					c-3.66,0.82-7.34,1.65-11.06,2.61c-3.72,0.93-7.49,1.86-11.31,2.81c-3.82,0.98-7.67,2.08-11.61,3.14
					c-6.6,1.77-13.13,3.88-19.67,5.89c-3.28,0.97-6.52,2.1-9.77,3.21l-9.73,3.32c-5.21,1.99-7.5,3.1-7.04,3.18
					c0.23,0.04,1.14-0.16,2.72-0.6c1.58-0.44,3.82-1.16,6.75-1.98l8.73-2.57c2.91-0.86,5.81-1.73,8.75-2.46
					c-1.33,0.34-2.66,0.67-3.98,1.03c-1.32,0.38-2.63,0.75-3.95,1.13c20.08-6.03,40.94-11.2,61.87-15.46
					c20.92-4.27,41.91-7.66,62.24-10.32c6.43-0.77,14.23-1.91,17.59-2.56C479.37,49.49,476.57,49.57,469.92,50.39z"/>
				<g>
					<path class="st3" d="M326.42,81.88c-3.27,0.92-6.43,1.98-9.93,3.17c-3.5,1.2-7.35,2.46-11.89,4.2
						c-2.14,0.94-3.24,1.41-3.8,1.66c1.69-0.6,3.67-1.34,5.81-2.08c2.16-0.7,4.46-1.45,6.77-2.2c4.54-1.47,7.94-2.69,10.15-3.48
						C325.75,82.37,326.74,81.93,326.42,81.88z"/>
					<path class="st3" d="M300.81,90.9c-3.13,1.13-5.22,1.89-5.22,1.89c1.21-0.4,2.39-0.8,3.53-1.18c0.98-0.4,1.01-0.41,1.01-0.41
						S300.16,91.19,300.81,90.9z"/>
					<path class="st3" d="M1482,341.72c-7.74,2.09-15.48,4.09-23.22,6.08c-7.76,1.88-15.51,3.76-23.27,5.64
						c-15.52,3.75-31.05,7.5-46.58,11.26c-1.94,0.49-3.89,0.92-5.84,1.33l-5.86,1.27l-11.71,2.54l-23.43,5.07l-23.44,5.08
						c-3.9,0.89-7.83,1.59-11.75,2.36l-11.77,2.27c-15.7,3.03-31.4,6.06-47.1,9.1c-1.96,0.37-3.92,0.77-5.89,1.12l-5.91,1.01
						l-11.82,2.02l-23.64,4.05l-23.65,4.05l-5.91,1.01l-5.93,0.9l-11.86,1.79l-47.43,7.14c-4.24,0.63-7.79,1.28-7.98,1.42
						c-0.19,0.16,3.11-0.24,7.03-0.84c15.82-2.38,31.63-4.76,47.43-7.14l11.85-1.78l5.92-0.89l5.91-1
						c7.87-1.35,15.75-2.69,23.62-4.04c7.87-1.35,15.74-2.69,23.61-4.04l11.8-2.02c3.93-0.68,7.87-1.31,11.78-2.1
						c15.67-3.03,31.34-6.05,47-9.07c7.83-1.54,15.67-2.96,23.48-4.59l23.38-5.07c15.59-3.38,31.17-6.77,46.75-10.15l46.51-11.24
						l23.26-5.62c7.74-1.99,15.47-3.97,23.22-6.05c4.16-1.11,7.58-2.14,8.11-2.42C1488.82,339.99,1485.88,340.7,1482,341.72z"/>
					<path class="st3" d="M537.09,452.3c3.02-0.21,2.9-0.33-0.24-0.31c-2.68,0.02-7.49,0.19-10.48,0.39
						c-2.53,0.17-2.43,0.33,0.25,0.31C529.75,452.67,534.55,452.48,537.09,452.3z"/>
					<path class="st3" d="M564,441.45c8.89-0.43,17.55-0.8,25.86-1.29c8.31-0.5,16.28-1.01,23.8-1.53c2.81-0.18,5.95-0.31,8.33-0.38
						c-1.04-0.16,2.34-0.5,8.74-0.88c126.13-7.43,261.56-18.61,394.1-35.74c0.86-0.28,2.6-0.67,5.54-1.21
						c9.1-1.72,27.46-4.43,46.56-6.88l14.42-1.79c3.64-0.43,7.26-1.02,10.89-1.54l10.88-1.6c7.25-1.07,14.5-2.14,21.74-3.21
						c7.25-1.07,14.49-2.14,21.73-3.21c3.62-0.54,7.24-1.05,10.86-1.62l10.82-1.82c14.42-2.43,28.84-4.85,43.24-7.28l10.8-1.82
						l5.4-0.91l5.38-1.01c7.17-1.36,14.33-2.72,21.49-4.08c11.66-2.52,25.22-5.32,39.98-8.26l4.63-0.96l4.61-1.07l9.22-2.14
						c6.15-1.43,12.3-2.85,18.45-4.28c12.31-2.85,24.65-5.71,37.02-8.57c24.6-6.29,49.36-12.62,74.38-19.02
						c-3.17,0.7-5.13,0.97-5.14,0.8c0.22-0.17,1.1-0.49,2.51-0.93c1.41-0.46,3.34-1.05,5.67-1.73c2.33-0.68,5.05-1.45,8.04-2.26
						c2.98-0.82,6.21-1.71,9.56-2.63c3.39-0.91,6.77-1.85,10.13-2.81l10.08-2.86l-14.52,4.01l-14.59,3.86
						c-4.88,1.25-9.77,2.5-14.64,3.74c-4.91,1.17-9.81,2.34-14.71,3.51c-2.83,0.67-5.45,1.28-7.83,1.84
						c-10.75,2.63-21.56,5.28-32.45,7.94c-5.44,1.33-10.9,2.66-16.38,4c-5.51,1.22-11.04,2.44-16.6,3.67
						c-96.84,22.03-191.8,39.07-285.62,52.73c-93.83,13.64-186.53,23.89-279.1,31.84c-3.04,0.28-7.79,0.6-10.5,0.69
						c-1.81,0.02-1.5-0.14,1.89-0.44c3.65-0.32,7.28-0.65,10.89-0.97c1.81-0.16,3.61-0.32,5.41-0.48c1.8-0.18,3.6-0.37,5.39-0.55
						c7.17-0.75,14.29-1.49,21.37-2.22c14.16-1.48,28.16-2.95,42.1-4.41c13.93-1.56,27.77-3.32,41.64-4.96
						c6.94-0.84,13.88-1.67,20.84-2.51c6.96-0.85,13.95-1.63,20.93-2.63c13.99-1.9,28.09-3.81,42.4-5.75
						c7.16-0.96,14.36-1.93,21.64-2.9c7.25-1.09,14.57-2.19,21.96-3.3c14.78-2.2,29.86-4.45,45.33-6.75
						c1.93-0.29,3.87-0.58,5.82-0.87c1.94-0.32,3.89-0.65,5.84-0.97c3.91-0.65,7.84-1.3,11.8-1.95c7.92-1.3,15.94-2.62,24.09-3.96
						c9.69-1.58,19.38-3.17,29.06-4.75c9.64-1.77,19.28-3.55,28.92-5.32c9.63-1.77,19.26-3.54,28.89-5.31l14.44-2.67l14.37-2.96
						c19.16-3.95,38.32-7.91,57.49-11.87c19.08-4.37,38.17-8.75,57.29-13.13l7.17-1.64c2.39-0.55,4.79-1.08,7.16-1.71
						c4.75-1.21,9.51-2.42,14.27-3.63c9.52-2.42,19.04-4.84,28.58-7.26c4.77-1.21,9.54-2.42,14.31-3.63
						c4.77-1.23,9.57-2.37,14.31-3.69c9.51-2.56,18.99-5.17,28.42-7.88c37.71-10.83,74.86-23.19,109.98-39.62
						c18.41-8.45,35.97-17.93,52.42-28.63c4.19-2.58,8.11-5.48,12.13-8.25l3-2.09l2.8-2.07c1.84-1.4,3.65-2.83,5.43-4.29
						c7.1-5.85,13.68-12.19,19.41-18.9c5.72-6.7,10.59-13.8,14.1-20.96c3.51-7.17,5.59-14.35,5.98-21.11c0.2-3.39,0-6.69-0.6-9.93
						c-0.61-3.26-1.6-6.44-2.96-9.45c-2.79-6.01-7.11-11.68-12.96-16.78c-5.8-5.11-12.91-9.64-20.74-13.47
						c-7.83-3.85-16.34-7.07-25.2-9.7c-2.24-0.66-4.39-1.28-6.75-1.88c-2.35-0.59-4.69-1.23-7.06-1.79
						c-2.37-0.55-4.73-1.13-7.12-1.66l-7.18-1.53c-9.62-1.97-19.4-3.62-29.31-5.04c-19.83-2.84-40.2-4.72-61.06-6.36
						c-10.43-0.84-20.99-1.52-31.56-2.29c-5.29-0.37-10.6-0.74-15.91-1.11c-5.32-0.33-10.66-0.66-16.02-0.99
						c-115.71-7.18-228.62-9.54-341.03-10.08c-56.21-0.26-112.31-0.04-168.62,0.4c-56.33,0.45-112.78,0.95-169.57,2.2
						c-42.5,1.06-83.21,2.08-114.68,2.87c-15.72,0.39-29.13,0.62-39.31,0.7c-10.18,0.03-17.12-0.09-19.91-0.55
						c-3.24-0.57-0.1-1.54,8.22-2.76c8.32-1.16,21.8-2.63,39.26-3.97c-6.96,0.36-13.83,0.65-20.74,1.05l-16.42,0.79l-16.41,0.9
						c-31.04,1.74-57.54,3.34-74.23,4.04c-7.65,0.39-15.31,0.75-22.95,1.24c-7.65,0.27-16.43,0.86-25.74,1.49
						c-4.64,0.39-9.41,0.78-14.21,1.18c-4.81,0.39-9.63,0.94-14.44,1.4c-4.8,0.45-9.54,1.02-14.16,1.55
						c-4.62,0.53-9.12,1.02-13.38,1.61c-4.28,0.53-8.34,1.04-12.12,1.51c-3.76,0.53-7.24,0.99-10.34,1.37l5.31-1.94l-5.82,0.98
						c-2.4,0.43-4.7,0.84-6.91,1.23c-2.19,0.43-4.29,0.83-6.27,1.22c-3.98,0.74-7.54,1.39-10.64,1.97
						c-6.17,1.23-10.55,1.95-12.85,2.13l1.57-1.42c1.84-1.06,5.07-2.46,9.71-4.22c4.66-1.71,10.78-3.62,18.35-5.9
						c-0.63-0.29,1.14-1.08,5.08-2.3c-6.72,0.84-11.65,1.57-13.68,1.47c-2.02-0.07-1.1-0.86,3.99-2.64c-8,1.58-6.79,0.85,2.63-1.6
						c3.26-0.79,7.2-1.65,11.23-2.52c-0.07,0.01-0.1,0.02-0.1,0.02c-4.43,0.68-5.76,0.85-11.73,1.86
						c-7.93,1.76-12.51,2.78-12.51,2.78c-1.32,0.3-2.55,0.58-3.71,0.84c-1.16,0.29-2.24,0.56-3.26,0.82
						c-2.04,0.51-3.83,0.97-5.45,1.37c-3.23,0.82-5.77,1.46-8.21,2.08c-4.85,1.39-9.39,2.57-18.38,5.2
						c-3.88,1.14-7.39,2.16-10.46,3.07c-1.54,0.44-2.98,0.86-4.3,1.24c-1.31,0.41-2.51,0.79-3.59,1.13
						c-4.32,1.34-6.71,2.08-6.71,2.08c-2.19,0.54-4.1,1.02-5.77,1.43c-1.67,0.43-3.07,0.85-4.27,1.17c-2.4,0.66-3.96,1.07-4.9,1.27
						c-1.88,0.4-1.31-0.03-0.15-0.89c0.96-0.45,2.04-0.95,3.18-1.47c-6.75,2.53-10.39,3.82-12.75,4.78
						c-2.36,0.96-3.49,1.43-5.29,2.16c-3.8,1.49-6.43,2.46-6.43,2.46c-0.74-0.12-0.74-0.12-3.08,0.73
						c-0.79,0.17-0.69-0.04-0.69-0.04c7.24-3.62,7.25-3.62,7.4-3.83c1.72-0.87,4.1-2.01,4.1-2.01c4.31-1.99,7.39-3.19,9.55-4.07
						c2.15-0.88,3.4-1.39,4.13-1.69c2.41-0.8,4.52-1.51,6.37-2.12c1.85-0.6,3.46-1.05,4.83-1.46c2.74-0.82,4.57-1.36,5.8-1.72
						c2.45-0.73,2.46-0.73,2.46-0.73c4.04-1.82,4.04-1.82,4.04-1.82c4.64-0.99,4.64-0.99,4.64-0.99c-2.68,0.4-2.68,0.4-2.68,0.4
						c9.84-2.87,9.84-2.87,9.84-2.87c-11.26,3.2-11.26,3.2-11.26,3.2c11.56-3.62,17.33-5.47,21.42-6.56
						c4.07-1.17,6.4-1.85,11.05-3.19c9.74-2.51,18.04-4.8,19.03-5.01c-0.85,0.06-0.92-0.03-0.92-0.03
						c6.29-1.43,11.01-2.5,14.94-3.39c3.93-0.87,7.07-1.46,10.19-2.11c3.12-0.62,6.21-1.29,10.08-2.01c3.87-0.7,8.5-1.53,14.67-2.64
						c2.3-0.33,4.13-0.51,5.84-0.71c2.35-0.52,7.07-1.38,11.95-2.17c4.35-0.63,8.67-1.26,12.99-1.88c0.97-0.17,1.9-0.33,2.77-0.48
						c0-0.02-0.04-0.03-0.04-0.03c4.4-0.74,7.46-1.16,10.94-1.71c2.19-0.34,2.26-0.35,2.26-0.35c0.02,0,0.1-0.01,0.13-0.01
						c1.89-0.29,3.98-0.61,6.52-0.99c2.54-0.35,5.52-0.77,9.16-1.28c3.65-0.51,7.96-1.13,13.18-1.77
						c5.21-0.66,11.33-1.47,18.57-2.29c3.85-0.34,7.57-0.67,11.17-0.99c3.6-0.28,7.09-0.55,10.48-0.82
						c-2.19,0.13-4.29,0.25-6.32,0.36c-4.06,0.22-0.4-0.5-2.61-0.34c-27.21,2.06-55.68,4.99-84.61,9.18
						c-3.62,0.49-7.24,1.07-10.86,1.66c-3.63,0.58-7.26,1.16-10.9,1.75c-3.63,0.65-7.27,1.31-10.91,1.97
						c-3.64,0.65-7.29,1.3-10.92,2.07c-3.64,0.74-7.28,1.47-10.92,2.21c-3.64,0.74-7.26,1.62-10.9,2.43
						c-7.27,1.57-14.49,3.46-21.71,5.28c-1.29,0.34-2.57,0.68-3.83,1.02c-1.25,0.36-2.48,0.7-3.67,1.04
						c-2.38,0.65-4.61,1.26-6.56,1.79c-3.91,1.04-6.74,1.7-7.53,1.82c-1.44,0.05,5.81-2.37,16.36-5.45
						c14.52-4.2,29.55-8.21,45.02-11.54c7.72-1.79,15.56-3.26,23.46-4.84c3.95-0.76,7.93-1.43,11.92-2.15
						c3.99-0.72,8-1.42,12.03-2.03c4.03-0.63,8.07-1.27,12.12-1.91c4.06-0.57,8.12-1.14,12.2-1.72c4.08-0.59,8.17-1.11,12.27-1.61
						c4.1-0.5,8.21-1.05,12.33-1.51c16.47-1.9,33.06-3.51,49.66-4.95c66.35-5.66,133.22-8.29,194.03-9.24
						c32.02-0.74,64.2-1.21,96.45-1.51c-1.55-0.04-3.09-0.09-4.62-0.13c8.36-0.01,16.7-0.03,25.03-0.04
						c0.91-0.01,1.81-0.01,2.7-0.02c-6.34-0.15-12.65-0.31-18.94-0.46c-4.36-0.01-8.72-0.01-13.14-0.02
						c-37.41,0.44-73.1,0.9-108.51,1.69c-35.41,0.8-70.53,1.91-106.75,3.84c-9.73,0.54-19.13,1-28.32,1.57
						c-4.6,0.27-9.14,0.53-13.65,0.79c-4.51,0.29-8.99,0.59-13.45,0.88c-17.84,1.13-35.44,2.45-53.93,4.2
						c-9.51,0.95-16.13,1.55-15.04,1.11c0.54-0.2,3.02-0.63,6.53-1.12c3.51-0.46,8.04-0.99,12.69-1.48
						c15.4-1.68,31.05-3.18,46.82-4.48c7.89-0.65,15.82-1.34,23.77-1.89c7.96-0.58,15.94-1.19,23.93-1.68
						c31.96-2.09,64.1-3.62,95.45-4.66c62.7-2.07,122.26-2.3,171.3-1.64c22.37-0.24,43.89-0.23,61.75,0.08c0.32,0,0.68,0,1,0
						c-4.69-0.17-9.07-0.32-13.76-0.49c16.7,0.01,25.61,0.44,40.85,0.54c-1.75-0.24-3.89-0.53-5.64-0.77
						c82.43-0.08,171.66-0.36,248.07,2.11c3.08,0.08,5.95,0.15,8.82,0.22c4.11,0,8.24,0,12.37-0.01c4.14,0.02,8.29,0.05,12.47,0.07
						c8.36,0.06,16.83,0.13,25.49,0.2c17.32,0.29,35.42,0.55,54.95,1.25c-6.61-0.27-13.14-0.53-19.67-0.8
						c-6.53-0.23-13.07-0.45-19.68-0.68c7.09,0.12,14.16,0.24,21.26,0.36c7.1,0.19,14.22,0.37,21.41,0.56
						c14.37,0.36,28.99,0.94,44.16,1.6c41.08,1.82,84.59,4.63,123.2,7.94c19.31,1.78,37.35,3.4,53.38,5.25
						c16.03,1.82,30.01,3.8,40.91,5.75c20.1,2.55,40.31,5.91,60.35,10.86c5.01,1.26,9.97,2.52,15.12,4.05
						c5.09,1.52,10.16,3.21,15.19,5.11c10.06,3.8,19.98,8.45,29.51,14.38c9.49,5.94,18.66,13.19,26.39,22.43
						c3.86,4.6,7.33,9.68,10.21,15.16c2.89,5.47,5.11,11.36,6.62,17.39c1.52,6.02,2.32,12.27,2.37,18.49
						c0.05,6.21-0.63,12.37-1.91,18.28c-2.57,11.85-7.4,22.65-13.25,32.32c-5.88,9.69-12.82,18.33-20.29,26.22
						c-7.5,7.88-15.56,15.03-24.07,21.54l-3.22,2.41c-1.07,0.8-2.12,1.5-3.19,2.26l-6.37,4.46l-3.18,2.23
						c-1.07,0.74-2.17,1.41-3.25,2.12l-6.52,4.19c-8.73,5.52-17.67,10.68-26.73,15.53c-36.31,19.4-74.62,33.65-113.06,45.53
						c-7.95,2.48-15.15,4.34-16.63,4.55c-0.88,0.01,4.31-1.75,12.26-4.13c13.77-4.31,27.54-8.78,41.22-13.77
						c3.43-1.18,6.83-2.55,10.24-3.82c3.41-1.3,6.83-2.56,10.21-3.97l10.17-4.13l10.1-4.39c13.42-5.99,26.74-12.37,39.68-19.65
						l4.88-2.67l4.8-2.84c3.19-1.92,6.41-3.76,9.56-5.74l9.39-6.07l2.35-1.52l2.3-1.61l4.59-3.22c3.06-2.15,6.1-4.25,9.2-6.63
						c3.05-2.36,6.07-4.76,9-7.28c5.89-5.01,11.5-10.4,16.82-16.15c5.28-5.79,10.31-11.92,14.78-18.61
						c4.51-6.65,8.48-13.85,11.68-21.58c1.55-3.9,2.95-7.89,4.02-12.04c1.04-4.16,1.92-8.4,2.34-12.77
						c0.91-8.69,0.4-17.73-1.73-26.32c-2.01-8.62-5.71-16.85-10.43-24.18c-4.79-7.29-10.56-13.71-16.85-19.14
						c5.23,4.58,10.08,9.83,14.31,15.7c4.18,5.9,7.75,12.43,10.2,19.41c5.09,13.84,5.71,29.41,2.5,43.42
						c-1.58,7.02-3.95,13.73-6.91,20c-2.96,6.27-6.45,12.15-10.27,17.69c-7.66,11.08-16.69,20.74-26.37,29.48
						c-4.85,4.37-9.91,8.46-15.13,12.34l-1.96,1.45l-1.95,1.36l-3.9,2.7c-2.61,1.79-5.18,3.64-7.83,5.37l-8,5.09l-4.01,2.54
						l-4.09,2.39l-8.18,4.78c-2.75,1.56-5.55,3.01-8.32,4.52c-5.53,3.08-11.21,5.81-16.86,8.63c-2.81,1.45-5.7,2.7-8.56,4.04
						c-2.87,1.31-5.72,2.66-8.61,3.94l-8.7,3.72l-4.35,1.86l-4.39,1.75c-2.93,1.16-5.86,2.33-8.79,3.5
						c-2.94,1.14-5.9,2.21-8.85,3.31c-12.02,4.55-24.24,8.65-36.51,12.62c-6.08,1.88-12.13,3.82-18.2,5.53
						c-3.03,0.87-6.06,1.75-9.08,2.62c-3.03,0.83-6.06,1.65-9.08,2.48c-30.7,8.69-61.18,15.66-91.45,23.17
						c-3.78,0.93-7.57,1.85-11.35,2.78c-1.89,0.48-3.78,0.91-5.69,1.31l-5.7,1.25c-7.59,1.67-15.18,3.33-22.77,5l-22.75,5
						l-11.38,2.5l-5.69,1.25l-5.72,1.13c-15.24,3-30.51,6-45.82,9.01c-7.66,1.48-15.32,3.07-23.02,4.48
						c-7.71,1.35-15.44,2.71-23.19,4.07c-15.5,2.72-31.07,5.46-46.76,8.22c-15.73,2.46-31.57,4.94-47.55,7.44
						c-54.6,8.51-105.98,15.1-157.35,21.15c-12.83,1.65-25.7,2.85-38.6,4.24c-12.9,1.35-25.86,2.71-38.91,4.08
						c-6.53,0.73-13.09,1.29-19.68,1.88c-6.59,0.59-13.22,1.19-19.88,1.79c-13.33,1.2-26.81,2.42-40.5,3.66
						c-76.96,6.27-150.58,10.85-224.01,14.36c-73.43,3.34-146.65,5.53-222.84,6.93c-20.25,0.38-39.02,0.22-41.41-0.35
						c-2.45-0.57,12.24-1.36,32.55-1.74c79.41-1.83,158.47-4.4,237.55-8.08c79.07-3.83,158.16-8.92,237.57-15.63
						c9.92-0.88,19.86-1.76,29.8-2.64c4.97-0.44,9.94-0.88,14.91-1.32l7.46-0.66l7.46-0.76c19.89-2.05,39.81-4.1,59.77-6.15
						c2.49-0.26,4.99-0.5,7.49-0.78l7.48-0.89c4.99-0.59,9.98-1.19,14.97-1.78c9.99-1.18,19.98-2.37,29.99-3.56
						c20.04-2.21,40.04-5.16,60.12-7.83c10.04-1.36,20.09-2.72,30.16-4.08c10.04-1.54,20.1-3.08,30.17-4.63
						c10.07-1.55,20.16-3.1,30.26-4.66c5.05-0.79,10.11-1.51,15.16-2.37c5.04-0.88,10.09-1.76,15.14-2.64
						c10.1-1.76,20.22-3.52,30.36-5.28c5.07-0.88,10.14-1.76,15.22-2.64c5.08-0.88,10.17-1.73,15.23-2.77
						c20.27-3.95,40.62-7.92,61.04-11.91c4.42-0.81,8.79-1.81,13.16-2.76c4.37-0.95,8.73-1.91,13.09-2.86
						c8.71-1.9,17.39-3.8,26.04-5.69c8.65-1.91,17.3-3.73,25.89-5.7c8.57-2.09,17.12-4.17,25.65-6.25
						c-0.46,0.03-0.89,0.05-0.91-0.03c-0.08-0.33,3.1-1.42,8.49-3.01c-9.7,2.35-19.41,4.7-29.14,7.06c-2.44,0.58-4.86,1.2-7.31,1.74
						l-7.35,1.59c-4.9,1.06-9.8,2.12-14.71,3.18c-9.82,2.12-19.65,4.24-29.49,6.36c-9.84,2.11-19.68,4.31-29.6,6.11
						c-109.81,22.93-220.89,40.46-339.74,53.24c-81.64,8.51-155.72,13.8-231.46,18.08c-95.88,6.45-191.61,10.67-288.6,13.39
						c-3.87,0.15-7.9,0.15-9.29,0.07c-1.39-0.09,0.69-0.25,4.6-0.38c16.67-0.64,33.44-1.29,50.29-1.94
						c8.43-0.32,16.88-0.64,25.35-0.96c8.47-0.39,16.96-0.78,25.46-1.17c17.01-0.78,34.09-1.56,51.23-2.35
						c17.13-0.93,34.32-1.86,51.54-2.8c-10.89,0.12-17.38-0.07-16.53-0.65c0.83-0.6,9.23-1.5,22.08-2.45l-46.86,2.14
						c-9.65,0.44-17.26,0.55-17,0.24c0.2-0.29,7.87-0.85,17.05-1.27c15.93-0.73,31.85-1.46,47.77-2.19l11.94-0.55l11.93-0.68
						l23.85-1.36l23.85-1.36l11.92-0.68l11.91-0.81l47.64-3.3l14.29-1.06l14.27-1.25c9.51-0.83,19.02-1.66,28.53-2.5l28.52-2.49
						l28.48-2.89c9.49-0.97,18.99-1.94,28.49-2.91l14.25-1.45c4.75-0.46,9.49-1.09,14.23-1.63c18.97-2.24,37.96-4.49,56.98-6.74
						c-10.59,0.85-18.41,1.29-22.17,1.2c-0.02,0-0.02-0.01-0.02-0.01c-11.78,1.37-23.52,2.74-35.21,4.1
						c-107.4,12.67-216.58,21.02-326.71,26.72c-110.14,5.68-221.27,8.56-332.83,9.9c-2.18,0.04-4.18,0.04-5.64,0.02
						c-1.46-0.02-2.38-0.06-2.42-0.13c-0.08-0.13,3.3-0.29,7.23-0.34c33.68-0.48,67.31-0.88,100.89-1.68
						c8.39-0.18,16.79-0.36,25.18-0.54l12.58-0.27l12.57-0.36c16.76-0.49,33.51-0.99,50.24-1.48c-0.11,0-0.16,0-0.28,0
						c-2.7,0-3.21-0.13-0.25-0.31c2.57-0.16,7.84-0.31,10.5-0.31c3.11-0.02,2.82,0.13,0.3,0.31c15.59-0.6,31.16-1.21,46.72-1.81
						c7.78-0.31,15.55-0.61,23.32-0.92c7.77-0.32,15.53-0.75,23.29-1.12c15.52-0.77,31.02-1.55,46.5-2.32
						c7.74-0.35,15.47-0.89,23.2-1.35c7.73-0.48,15.45-0.95,23.17-1.43c7.72-0.48,15.43-0.96,23.14-1.43l11.56-0.74l11.54-0.86
						c15.38-1.15,30.74-2.31,46.08-3.46c15.34-1.06,30.63-2.58,45.9-3.91c7.64-0.69,15.27-1.37,22.89-2.05l11.43-1.03
						c3.81-0.33,7.62-0.68,11.41-1.1l-5.3,0.52l-5.31,0.45l-10.61,0.9l-21.23,1.8l-21.23,1.8c-7.08,0.59-14.15,1.24-21.23,1.7
						l-42.49,3l-21.24,1.49l-21.26,1.25l-42.51,2.44l-10.63,0.61l-10.63,0.5L629,447.37c-14.17,0.64-28.35,1.28-42.52,1.92
						c-14.18,0.49-28.35,0.99-42.52,1.48c-6.18,0.31-12.35,0.62-18.54,0.93c-6.19,0.31-12.41,0.63-18.69,0.86
						c-3.41,0.13-7.89,0.18-9.27,0.1c-0.96-0.08,1.54-0.28,5.05-0.41c3.49-0.14,6.94-0.28,10.41-0.42
						c-21.47,0.56-38.05,0.48-37.71-0.19c1.16-0.73,19.59-1.74,41.89-2.4c14.92-0.58,29.83-1.15,44.72-1.73
						c7.45-0.29,14.89-0.57,22.34-0.86c7.44-0.3,14.88-0.7,22.32-1.04c14.87-0.71,29.74-1.42,44.61-2.12
						c7.43-0.32,14.86-0.76,22.29-1.2l22.28-1.3c6.43-0.41,12.85-0.82,19.27-1.23c6.48-0.49,12.9-0.97,19.35-1.45
						c-92.38,5.59-184.69,8.97-276.48,11.02c-3.94,0.11-7.59,0.17-10.27,0.17c-2.69,0-4.41-0.06-4.49-0.18
						c-0.2-0.23,6.18-0.61,14.08-0.84c80.84-2.5,162.14-6.15,243.67-11.26c10.19-0.63,20.39-1.26,30.59-1.88
						c10.19-0.75,20.39-1.49,30.6-2.24c10.2-0.75,20.41-1.5,30.62-2.25c5.1-0.39,10.22-0.72,15.32-1.16l15.31-1.33
						c10.21-0.89,20.42-1.78,30.64-2.66l15.33-1.33c5.11-0.44,10.22-0.87,15.32-1.42c20.41-2.07,40.84-4.15,61.28-6.22l5.02-0.59
						l5.02-0.67l10.03-1.35c6.69-0.9,13.38-1.8,20.08-2.7c13.39-1.83,26.82-3.56,40.26-5.47c13.42-2.05,26.87-4.1,40.38-6.15
						c6.75-1.03,13.51-2.06,20.29-3.09c3.39-0.53,6.78-1,10.17-1.58c3.38-0.58,6.77-1.16,10.17-1.74
						c-3.42,0.51-6.87,1.03-10.33,1.55c-3.46,0.52-6.95,0.93-10.42,1.41c-22.11,2.98-43.81,5.9-65.18,8.77
						c-21.41,2.58-42.5,5.13-63.35,7.64c-41.76,4.62-82.61,9.12-123.37,12.72c-81.5,7.48-162.49,13.22-248.93,17.15
						c-4.33,0.19-7.94,0.22-8.51,0.12c-0.47-0.1,2.46-0.33,6.85-0.49c21.09-1.02,41.71-2.16,62.1-3.26
						c5.09-0.28,10.17-0.57,15.24-0.85c5.06-0.34,10.12-0.67,15.16-1.01c10.09-0.68,20.14-1.35,30.2-2.02
						c10.05-0.7,20.1-1.3,30.16-2.08c10.06-0.8,20.13-1.61,30.26-2.42c10.13-0.81,20.3-1.62,30.56-2.43c2.56-0.2,5.13-0.41,7.7-0.61
						c2.57-0.24,5.15-0.48,7.73-0.71c5.16-0.48,10.35-0.96,15.56-1.44c17.27-1.6,34.32-3.18,51.19-4.75
						c16.84-1.81,33.51-3.61,50.02-5.39c4.13-0.45,8.24-0.89,12.35-1.34c4.11-0.46,8.21-0.85,12.29-1.4
						c8.16-1.02,16.29-2.04,24.39-3.06c8.1-1.02,16.16-2.04,24.2-3.05c4.02-0.51,8.03-1.02,12.04-1.53
						c4.01-0.51,8.01-0.99,11.99-1.6c-4.07,0.58-8.16,1.03-12.24,1.51c-4.08,0.48-8.15,0.96-12.22,1.44
						c-8.13,0.97-16.25,1.93-24.35,2.89c-8.1,0.97-16.18,1.93-24.25,2.9c-8.07,0.95-16.15,1.7-24.21,2.57
						c-16.12,1.68-32.19,3.36-48.23,5.04c-16.06,1.55-32.1,2.92-48.13,4.39l-24.04,2.17c-8.01,0.72-16.04,1.26-24.06,1.9
						c-16.05,1.23-32.11,2.46-48.2,3.69c-16.09,1.14-32.23,2.09-48.41,3.13c-8.09,0.51-16.19,1.02-24.31,1.53
						c-8.11,0.52-16.25,0.86-24.41,1.3c-5.69,0.32-11.44,0.53-15.08,0.57c-0.3,0.08-1.46,0.2-3.21,0.32
						c-16.29,1.06-34.06,2.24-52.24,3.02c-3.47,0.18-7.86,0.29-9.71,0.23C558.01,441.86,560.13,441.66,564,441.45z M718.37,37.16
						c-1.28-0.01-2.32-0.02-3.29-0.03c3.55-0.04,7.36-0.09,11.57-0.14c0,0,0,0,16.15,0.48C742.8,37.47,730.56,37.32,718.37,37.16z
						 M516.51,53.33c0.03,0,0.03,0,0.11-0.01c-5.41,0.19-9.31,0.41-9.31,0.41C511.09,53.53,514.05,53.42,516.51,53.33z
						 M1730.72,195.34c4.41-8.73,7.85-18.27,9.43-28.44c1.55-10.14,1.18-20.85-1.46-30.93c-2.57-10.1-7.37-19.62-13.52-27.7
						c-6.16-8.11-13.54-14.86-21.34-20.5c-7.82-5.65-16.09-10.26-24.52-14.15c-8.44-3.88-17.05-7.07-25.75-9.75
						c-2.17-0.67-4.37-1.31-6.53-1.91l-6.43-1.73c-4.3-1.09-8.59-2.19-12.91-3.15c-8.62-1.97-17.27-3.71-25.92-5.21
						c8.47,1.36,16.93,2.97,25.36,4.79c4.22,0.89,8.42,1.91,12.62,2.91c4.19,1.09,8.36,2.12,12.67,3.39
						c13.21,3.98,26.27,9.1,38.76,16.14c6.24,3.51,12.32,7.55,18.07,12.22c5.74,4.67,11.15,10.04,15.85,16.17
						c2.36,3.05,4.49,6.34,6.43,9.74c1.94,3.41,3.57,7.03,4.98,10.72c1.4,3.7,2.44,7.53,3.27,11.38c0.74,3.88,1.31,7.82,1.44,11.77
						c0.4,7.9-0.57,15.76-2.43,23.21C1736.93,181.75,1734.07,188.75,1730.72,195.34z M582.44,40.5c9.17-0.44,17.32-0.67,24.88-0.85
						c7.55-0.21,14.5-0.28,21.25-0.34c12.02-0.84,24.59-1.48,37.32-2.08c34.21-1.51,67.55-2.47,100.37-3.09
						c-4.27-0.24,3.6-0.39,7.62-0.52c4.15-0.12,8.24-0.24,12.34-0.36c-35,0.49-70.13,1.24-105.87,2.49
						C648.13,36.84,613.11,38.66,582.44,40.5z M339.61,79.82c-0.97,0.27-1.84,0.51-2.94,0.81c0,0,0,0,0.77-0.31
						c0.77-0.31,2.31-0.97,5.44-2.12C342.89,78.2,341.44,78.88,339.61,79.82z M329.89,83.84c1.57-0.48,3.15-0.96,4.86-1.48
						C333.07,83.1,331.49,83.53,329.89,83.84z M374.88,71.71c-2.71,0.52-4.34,0.89-6.45,1.37
						C374.84,71.68,374.88,71.71,374.88,71.71z M410.03,79.31l17.01-5.82c-6.22,2.03-12.44,3.95-18.6,6.05L410.03,79.31z"/>
				</g>
			</g>
		</g>
	</g>
</g>
</svg>
